<?xml version="1.0" encoding="utf-8"?>
<!-- Generator: Adobe Illustrator 19.1.0, SVG Export Plug-In . SVG Version: 6.00 Build 0)  -->
<svg version="1.1" id="Ebene_1" xmlns="http://www.w3.org/2000/svg" xmlns:xlink="http://www.w3.org/1999/xlink" x="0px" y="0px"
	 viewBox="0 0 28 28" style="enable-background:new 0 0 28 28;" xml:space="preserve">
<style type="text/css">
	.st0{fill:#FF7214;}
	.st1{fill:none;stroke:#FF7214;stroke-miterlimit:10;}
</style>
<path class="st0" d="M6,10v13h16V10H6z M17.4,17.6H15V20h-2v-2.4h-2.4v-2H13v-2.4h2v2.4h2.4V17.6z"/>
<path class="st0" d="M4.9,10C3.9,10,3,10.9,3,11.9v9.1C3,22.1,3.9,23,4.9,23H5L4.9,10L4.9,10z"/>
<path class="st0" d="M23.1,10L23.1,10L23,23h0.1c1.1,0,1.9-0.9,1.9-1.9v-9.1C25,10.9,24.1,10,23.1,10z"/>
<path class="st1" d="M10,9c0-1,1-2,2-2h4c1,0,2,1,2,2"/>
<g>
</g>
<g>
</g>
<g>
</g>
<g>
</g>
<g>
</g>
<g>
</g>
</svg>
