<?xml version="1.0" encoding="utf-8"?>
<!-- Generator: Adobe Illustrator 19.1.0, SVG Export Plug-In . SVG Version: 6.00 Build 0)  -->
<svg version="1.1" id="Ebene_1" xmlns="http://www.w3.org/2000/svg" xmlns:xlink="http://www.w3.org/1999/xlink" x="0px" y="0px"
	 viewBox="0 0 28 28" style="enable-background:new 0 0 28 28;" xml:space="preserve">
<style type="text/css">
	.st0{fill:none;stroke:#FF7214;stroke-miterlimit:10;}
	.st1{fill:#181716;}
	.st2{fill:#FF7214;}
</style>
<polyline class="st0" points="25.3,12.2 15.4,3.7 3.5,9.1 "/>
<polygon class="st1" points="17.1,19.4 20.5,19.8 18,19 "/>
<polygon class="st1" points="20.5,19.8 21,20 21,19.9 "/>
<polygon class="st1" points="9.3,18.5 5.4,17.4 8.2,18.9 "/>
<polygon class="st2" points="17.1,21.4 16,22 14.2,21.1 9,20.5 8,21 5,20 5,24 11,24 15,24 21,24 21,22 20.5,21.8 "/>
<path class="st2" d="M20.4,10.8l-1,0.8l-0.3,2l-3.9,0.8l0.4-0.6l2.9-1l-0.9-1.4c0,0,1-1,1.6-1.6L15,6.3l-4.2,1.9l0.3,2l-1.9,2l0,1.6
	l-0.8-1.2l1-2.4L8.5,9.2l-2.1,1l-1,7.2l2.8,1.4l1.1-0.4l0.9,0.2l0.6-4.5l5.9,0.8L16,21l1.2-0.4l3.2,0.8l0.5,0.3l1.3-9.2L20.4,10.8z"
	/>
<g>
</g>
<g>
</g>
<g>
</g>
<g>
</g>
<g>
</g>
<g>
</g>
</svg>
