<?xml version="1.0" encoding="utf-8"?>
<!-- Generator: Adobe Illustrator 19.1.0, SVG Export Plug-In . SVG Version: 6.00 Build 0)  -->
<svg version="1.1" xmlns="http://www.w3.org/2000/svg" xmlns:xlink="http://www.w3.org/1999/xlink" x="0px" y="0px"
	 viewBox="0 0 560.7 154.4" style="enable-background:new 0 0 560.7 154.4;" xml:space="preserve">
<style type="text/css">
	.st0{display:none;}
	.st1{display:inline;}
	.st2{fill:none;}
	.st3{fill:#FFFFFF;}
	.st4{fill:#E3000B;}
</style>
<g id="Ebene_2" class="st0">
</g>
<g id="Ebene_1">
	<g>
		<rect x="172.8" y="52.2" class="st2" width="399.4" height="58.7"/>
		<path class="st3" d="M209.5,74.6c0-5.5-4.4-9.4-9.3-9.4c-5.8,0-11.3,4.8-11.3,11.3v13.9c0,1.3-0.8,2.1-2.2,2.1s-2.3-0.8-2.3-2.1
			V63.6c0-2.8,4.3-2.8,4.3,0.1v3.7c2.2-4.4,6.8-6.2,11.5-6.2c7,0,13.6,4.8,13.6,13.4v15.9c0,1.3-0.8,2.1-2.2,2.1
			c-1.3,0-2.2-0.8-2.2-2.1V74.6z"/>
		<path class="st3" d="M224.3,87.4c-2.7-3.2-3.8-7-3.7-11.5c0.6-6.7,4.5-12.2,11.1-14.1c1.4-0.4,3.1-0.5,4.6-0.5
			c1.4,0,2.9,0.1,4.4,0.5c6.5,1.9,10.6,7.4,11.2,14.1c0.2,4.5-1,8.3-3.6,11.5c-2.9,3.5-7.3,5.4-12,5.4
			C231.5,92.8,227.2,90.9,224.3,87.4z M236.2,65.3c-1.1,0-2.3,0.2-3.2,0.4c-5,1.3-8,6-8,11.4c0,2.7,0.8,5.5,2.6,7.6
			c2.1,2.5,5.3,4,8.6,4c3.2,0,6.5-1.6,8.6-4c1.7-2,2.6-4.9,2.6-7.5c0-5.5-2.9-10.2-8-11.5C238.6,65.5,237.4,65.3,236.2,65.3z"/>
		<path class="st3" d="M261.5,84.7c0.6,2.7,5.3,4.1,9.7,4.1c2.9,0,9.2-1.3,9.2-5.5c0-3.8-4.6-4-9.4-4.4c-6.5-0.6-13.4-1.1-13.4-8.5
			c0-6.4,7.3-9.2,13.1-9.2c4.6,0,11,0.8,13.1,6.2c0.8,2.7-3.3,3.8-4.1,1.6c-1.3-3.5-6.4-3.7-9.1-3.7c-3.5,0-8.7,1.5-8.7,5.2
			c0,3.8,4.4,3.8,9.2,4.1c6.6,0.6,13.6,1.2,13.6,8.7c0,7.6-8.6,9.4-13.6,9.4s-12.7-1.3-13.9-7.3C256.6,82.9,261,81.7,261.5,84.7z"/>
		<path class="st3" d="M305,61.7c2.7,0,2.7,3.8,0,3.8h-6.5v16.2c0,3.4,0.5,7,4.6,7c0.9,0,2.2-0.3,2.8-0.7c2.5-1.4,4.5,2.1,1.8,3.6
			c-1.5,0.8-3,1-4.6,1c-7.2,0-8.9-5.3-8.9-11V65.5h-4c-2.8,0-2.6-3.8,0-3.8h4v-7c0-2.9,4.3-2.8,4.3,0v7H305z"/>
		<path class="st3" d="M319,66.7c1.9-4,5.5-5.1,8.9-5.1c1.4,0,2.3,0.7,2.3,2.1c0,1.3-0.9,2-2.3,2c-6.2,0-8.8,4.9-8.8,11v13.6
			c0,1.3-1,2.1-2.2,2.1c-1.3,0-2.2-0.8-2.2-2.1V63.7c0-2.6,4.3-2.9,4.3,0V66.7z"/>
		<path class="st3" d="M342.4,62.5c2-0.9,4.1-1.2,6.4-1.1c3.4,0.1,7.3,1.1,9.5,4.7v-2.3c0-1.3,0.8-2.2,2.2-2.2
			c1.3,0,2.2,0.9,2.2,2.2v26.6c0,1.3-0.9,2.2-2.2,2.2c-1.4,0-2.2-0.8-2.2-2.2v-2.9c-1.7,3.5-6.2,5.5-9.7,5.5c-2.9,0-6.1-0.8-8.6-2.6
			c-4.6-3.1-6.9-8.2-6.7-14.1C333.4,70.2,336.7,64.6,342.4,62.5L342.4,62.5z M358.3,79.4v-4.7c0-5.9-4.1-9-9.5-9.2
			c-4.3-0.1-8.6,2.2-10.3,6.4c-0.5,1.3-0.8,2.9-0.9,4.4c-0.1,3.9,1.1,7.5,4.4,10.2c1.8,1.4,4,2.1,6.2,2.3
			C353.7,88.8,358,85.4,358.3,79.4z"/>
		<path class="st3" d="M385.7,61.3c4,0,7.9,1.7,9.7,4.9V54.2c0-2.8,4.4-2.8,4.4,0v36.2c0,1.3-0.8,2.1-2.2,2.1s-2-0.8-2-2.1v-2.8
			c-2,3.7-6.2,5.3-9.8,5.3c-1.9,0-3.9-0.4-5.8-1.1l0.1,0.1c-6.5-2.7-9.8-8.6-9.7-15.6C370.6,67.7,376.7,61.3,385.7,61.3z
			 M395.4,79.4v-4.7c0-5.3-4.1-9-9.5-9.2c-4.3,0-8.5,2.3-10.3,6.4c-0.5,1.3-0.8,2.9-0.9,4.4c-0.1,3.9,1.2,7.5,4.4,10.2
			c1.7,1.4,3.9,2.1,6.2,2.3C390.8,88.8,395.4,85.3,395.4,79.4z"/>
		<path class="st3" d="M416.4,62.5c2-0.9,4.1-1.2,6.4-1.1c3.4,0.1,7.3,1.1,9.5,4.7v-2.3c0-1.3,0.8-2.2,2.2-2.2
			c1.3,0,2.2,0.9,2.2,2.2v26.6c0,1.3-0.9,2.2-2.2,2.2c-1.4,0-2.2-0.8-2.2-2.2v-2.9c-1.7,3.5-6.2,5.5-9.7,5.5c-2.9,0-6.1-0.8-8.6-2.6
			c-4.6-3.1-6.9-8.2-6.7-14.1C407.3,70.2,410.7,64.6,416.4,62.5L416.4,62.5z M432.3,79.4v-4.7c0-5.9-4.1-9-9.5-9.2
			c-4.3-0.1-8.6,2.2-10.3,6.4c-0.5,1.3-0.8,2.9-0.9,4.4c-0.1,3.9,1.1,7.5,4.4,10.2c1.8,1.4,4,2.1,6.2,2.3
			C427.7,88.8,432,85.4,432.3,79.4z"/>
		<path class="st3" d="M496.5,74.6c-0.1-5.2-4.3-8.9-9.3-8.9c-6.3,0-11.3,4.7-11.3,11.6v13.2c0,1.3-0.9,2.1-2.2,2.1
			c-1.3,0-2.2-0.8-2.2-2.1V75.6c0-3.4-1.4-6.7-4.1-8.5c-1.6-1-3.3-1.4-5.2-1.4c-5.9,0-11.2,4.5-11.2,11.2v13.5c0,2.8-4.4,2.7-4.4,0
			V63.7c0-1.1,1-2.1,2.2-2.1c1.3,0,2.1,1,2.1,2.1v4.1c2.4-4.3,6.7-6.2,11.3-6.2c5.2,0,10.4,2.6,12.2,7.9c2.2-5.3,7.4-7.9,12.7-7.9
			c6.9,0,13.9,4.6,13.9,12.8v16.1c0,1.3-0.9,2.1-2.2,2.1c-1.4,0-2.2-0.8-2.2-2.1V74.6z"/>
		<path class="st4" d="M510.2,54.8c0-3,4.5-2.9,4.5,0v35.9c0,2.8-4.5,2.9-4.5,0V54.8z"/>
		<path class="st4" d="M552.8,88.6c-3.3,2.6-7.6,4.3-11.9,4.3c-10.5,0-19.2-7.6-19.2-20.4c0-9.6,6.1-17.5,15.7-19
			c2.1-0.2,4.1-0.2,6.4,0c9.4,1.4,16.3,9.6,16.3,19c-0.1,5.3-1.4,10-4.3,13.1l3.4,3.5c2,2-1,4.9-3.1,2.9L552.8,88.6z M552.8,82.4
			c2.2-2.7,2.9-5.9,2.9-9.8c0-7.7-5.2-13.9-12.5-15.1c-1.7-0.2-3.4-0.2-5.2,0c-7.3,1.1-11.9,7.5-11.9,15.1c0,9.6,6.7,16.2,14.8,16.2
			c3.4,0,6.5-1.2,9.1-3.4l-3.4-3.4c-2.1-2.1,1.1-5,3.1-2.8L552.8,82.4z"/>
	</g>
	<g>
		<circle class="st3" cx="77.1" cy="77.2" r="77.2"/>
		<path class="st4" d="M137.4,115.1c-0.9,1.8-2.7,3.1-4.9,3.1c-3,0-5.5-2.5-5.5-5.5c0-3,2.5-5.5,5.5-5.5c2.2,0,4,1.3,4.9,3.1h9.4
			c1.5-3.1,2.8-6.2,3.8-9.4h-14.2c-0.9,1.8-2.7,3.1-4.9,3.1c-3,0-5.5-2.5-5.5-5.5c0-3,2.5-5.5,5.5-5.5c2.2,0,4,1.3,4.9,3.1h15.5
			c0.8-3.1,1.4-6.2,1.8-9.4h-23.6c-0.9,1.8-2.7,3.1-4.9,3.1c-3,0-5.5-2.5-5.5-5.5s2.5-5.5,5.5-5.5c2.2,0,4,1.3,4.9,3.1h24
			c0.1-1.6,0.2-3.2,0.2-4.9c0-1.5-0.1-3.1-0.2-4.6h-46c-0.9,1.8-2.7,3.1-4.9,3.1c-3,0-5.5-2.5-5.5-5.5c0-3,2.5-5.5,5.5-5.5
			c2.2,0,4,1.3,4.9,3.1h45.6c-0.4-3.2-1-6.4-1.8-9.4h-26.6c-0.9,1.8-2.7,3.1-4.9,3.1c-3,0-5.5-2.5-5.5-5.5c0-3,2.5-5.5,5.5-5.5
			c2.2,0,4,1.3,4.9,3.1h25.3c-1-3.3-2.3-6.4-3.8-9.4h-31c-0.9,1.8-2.7,3.1-4.9,3.1c-3,0-5.5-2.5-5.5-5.5c0-3,2.5-5.5,5.5-5.5
			c2.2,0,4,1.3,4.9,3.1h28.6c-1.9-3.3-4-6.5-6.3-9.4h-12.9c-0.9,1.8-2.7,3.1-4.9,3.1c-3,0-5.5-2.5-5.5-5.5s2.5-5.5,5.5-5.5
			c2.2,0,4,1.3,4.9,3.1h8.9C120.1,9.8,99.8,0,77.1,0C57.7,0,40,7.2,26.4,19.1h40.4c0.9-1.8,2.7-3.1,4.9-3.1c3,0,5.5,2.5,5.5,5.5
			c0,3-2.5,5.5-5.5,5.5c-2.2,0-4-1.3-4.9-3.1H21.4c-3.3,3.4-6.2,7.1-8.8,11h43.1c0.9-1.8,2.7-3.1,4.9-3.1c3,0,5.5,2.5,5.5,5.5
			c0,3-2.5,5.5-5.5,5.5c-2.2,0-4-1.3-4.9-3.1h-46c-1.4,2.5-2.7,5.2-3.9,7.9h37.2c0.9-1.8,2.7-3.1,4.9-3.1c3,0,5.5,2.5,5.5,5.5
			c0,3-2.5,5.5-5.5,5.5c-2.2,0-4-1.3-4.9-3.1h-39c-1.1,3.1-2,6.2-2.7,9.4h18c0.9-1.8,2.7-3.1,4.9-3.1c3,0,5.5,2.5,5.5,5.5
			s-2.5,5.5-5.5,5.5c-2.2,0-4-1.3-4.9-3.1H0.8c-0.4,3.1-0.7,6.2-0.8,9.4h35.3c0.9-1.8,2.7-3.1,4.9-3.1c3,0,5.5,2.5,5.5,5.5
			c0,3-2.5,5.5-5.5,5.5c-2.2,0-4-1.3-4.9-3.1H0.1c0.1,3.2,0.5,6.3,1,9.4h62.5c0.9-1.8,2.7-3.1,4.9-3.1c3,0,5.5,2.5,5.5,5.5
			c0,3-2.5,5.5-5.5,5.5c-2.2,0-4-1.3-4.9-3.1H2c0.7,3.2,1.7,6.4,2.9,9.4h71.3c0.9-1.8,2.7-3.1,4.9-3.1c3,0,5.5,2.5,5.5,5.5
			s-2.5,5.5-5.5,5.5c-2.2,0-4-1.3-4.9-3.1H6.7c1.5,3.3,3.2,6.4,5.1,9.4h54.9c0.9-1.8,2.7-3.1,4.9-3.1c3,0,5.5,2.5,5.5,5.5
			c0,3-2.5,5.5-5.5,5.5c-2.2,0-4-1.3-4.9-3.1H15.1c2.5,3.4,5.2,6.5,8.2,9.4h32.5c0.9-1.8,2.7-3.1,4.9-3.1c3,0,5.5,2.5,5.5,5.5
			c0,3-2.5,5.5-5.5,5.5c-2.2,0-4-1.3-4.9-3.1H28.5c13.3,10.8,30.2,17.3,48.6,17.3c28.8,0,54-15.9,67.2-39.3H137.4z"/>
	</g>
</g>
</svg>
