<?xml version="1.0" encoding="UTF-8"?>
<!-- Generator: Adobe Illustrator 18.1.1, SVG Export Plug-In . SVG Version: 6.00 Build 0)  -->
<svg version="1.1" id="Layer_1" xmlns="http://www.w3.org/2000/svg" xmlns:xlink="http://www.w3.org/1999/xlink" x="0px" y="0px" width="612px" height="562.1px" viewBox="0 114.9 612 562.1" enable-background="new 0 114.9 612 562.1" xml:space="preserve">
<g>
	<g>
		<path fill="#00A1DF" d="M548.6,550.2c-8.5,0-16.4,1.4-24.2,5l-59.1-106.2c17.1-11.4,29.2-30.6,29.2-53.4    c0-34.9-28.5-63.4-63.4-63.4c-10,0-19.2,2.1-27.1,6.4l-62-108.3c-3.6,2.8-7.1,5-11.4,6.4l61.3,109c-15,11.4-24.9,29.9-24.9,49.9    c0,17.8,7.1,34.2,19.2,45.6L332,555.9c-7.8-3.6-16.4-5.7-25.6-5.7c-7.1,0-14.2,1.4-21.4,3.6l-59.1-113.3    c11.4-11.4,19.2-27.8,19.2-44.9c0-20.7-10-38.5-24.9-49.9l61.3-109c-4.3-1.4-7.8-4.3-11.4-6.4l-60.6,108.3    c-8.5-4.3-17.8-6.4-27.1-6.4c-34.9,0-63.4,28.5-63.4,63.4c0,22.1,11.4,42,29.2,53.4L89.1,555.2c-7.1-2.8-15.7-5-24.2-5    C28.5,550.2,0,578.7,0,613.7c0,34.9,28.5,63.4,63.4,63.4s63.4-28.5,63.4-63.4c0-22.1-10.7-41.3-27.8-52.7l59.8-106.2    c7.1,2.8,15,4.3,22.8,4.3c12.1,0,24.2-3.6,34.2-10l57.7,110.4c-19.2,11.4-31.3,31.3-31.3,54.1c0,34.9,28.5,63.4,63.4,63.4    s63.4-28.5,63.4-63.4c0-21.4-10.7-39.9-26.4-51.3l54.1-112.6c10,6.4,21.4,10,33.5,10c7.8,0,15.7-1.4,22.8-4.3L513,560.9    c-16.4,11.4-27.8,30.6-27.8,52.7c0,34.9,28.5,63.4,63.4,63.4c34.9,0,63.4-28.5,63.4-63.4C612,578.7,583.5,550.2,548.6,550.2z"/>
	</g>
	<path fill="#00A1DF" d="M242.2,178.3c0,34.9,28.5,63.4,63.4,63.4s63.4-28.5,63.4-63.4s-28.5-63.4-63.4-63.4   S242.2,143.4,242.2,178.3z"/>
</g>
</svg>