<?xml version="1.0" encoding="utf-8"?>
<!-- Generator: Adobe Illustrator 19.1.0, SVG Export Plug-In . SVG Version: 6.00 Build 0)  -->
<svg version="1.1" xmlns="http://www.w3.org/2000/svg" xmlns:xlink="http://www.w3.org/1999/xlink" x="0px" y="0px"
	 viewBox="0 0 305.1 305.3" style="enable-background:new 0 0 305.1 305.3;" xml:space="preserve">
<style type="text/css">
	.st0{display:none;}
	.st1{display:inline;}
	.st2{fill:none;}
	.st3{fill:#FFFFFF;}
	.st4{fill:#E3000B;}
</style>
<g id="Ebene_2" class="st0">
</g>
<g id="Ebene_1">
	<g>
		<circle class="st3" cx="152.5" cy="152.6" r="152.6"/>
		<path class="st4" d="M271.6,227.6c-1.8,3.7-5.4,6.2-9.7,6.2c-6,0-10.9-4.9-10.9-10.9c0-6,4.9-10.9,10.9-10.9c4.3,0,8,2.6,9.7,6.2
			h18.5c2.9-6,5.5-12.2,7.5-18.7h-28c-1.8,3.7-5.4,6.2-9.7,6.2c-6,0-10.9-4.9-10.9-10.9c0-6,4.9-10.9,10.9-10.9c4.3,0,8,2.6,9.7,6.2
			h30.6c1.5-6.1,2.8-12.3,3.6-18.7h-46.6c-1.8,3.7-5.4,6.2-9.7,6.2c-6,0-10.9-4.9-10.9-10.9c0-6,4.9-10.9,10.9-10.9
			c4.3,0,8,2.6,9.7,6.2h47.4c0.2-3.2,0.5-6.4,0.5-9.6c0-3.1-0.3-6-0.5-9.1h-91c-1.8,3.7-5.4,6.2-9.7,6.2c-6,0-10.9-4.9-10.9-10.9
			c0-6,4.9-10.9,10.9-10.9c4.3,0,8,2.6,9.7,6.2h90.3c-0.8-6.4-2-12.6-3.5-18.7h-52.5c-1.8,3.7-5.4,6.2-9.7,6.2
			c-6,0-10.9-4.9-10.9-10.9s4.9-10.9,10.9-10.9c4.3,0,8,2.6,9.7,6.2h50c-2.1-6.4-4.6-12.6-7.5-18.7h-61.2c-1.8,3.7-5.4,6.2-9.7,6.2
			c-6,0-10.9-4.9-10.9-10.9c0-6,4.9-10.9,10.9-10.9c4.3,0,8,2.6,9.7,6.2h56.5c-3.7-6.6-7.9-12.8-12.4-18.7h-25.4
			c-1.8,3.7-5.4,6.2-9.7,6.2c-6,0-10.9-4.9-10.9-10.9S232.1,44,238.1,44c4.3,0,8,2.6,9.7,6.2h17.6C237.5,19.5,197.3,0,152.5,0
			C114,0,79,14.3,52.2,37.8H132c1.8-3.7,5.4-6.2,9.7-6.2c6,0,10.9,4.9,10.9,10.9c0,6-4.9,10.9-10.9,10.9c-4.3,0-8-2.6-9.7-6.2H42.4
			c-6.4,6.7-12.3,14-17.4,21.8h85.2c1.8-3.7,5.4-6.2,9.7-6.2c6,0,10.9,4.9,10.9,10.9c0,6-4.9,10.9-10.9,10.9c-4.3,0-8-2.6-9.7-6.2
			H19.3c-2.8,5-5.4,10.2-7.6,15.6h73.7c1.8-3.7,5.4-6.2,9.7-6.2c6,0,10.9,4.9,10.9,10.9c0,6-4.9,10.9-10.9,10.9
			c-4.3,0-8-2.6-9.7-6.2H8.2c-2.1,6.1-3.9,12.3-5.2,18.7h35.7c1.8-3.7,5.4-6.2,9.7-6.2c6,0,10.9,4.9,10.9,10.9s-4.9,10.9-10.9,10.9
			c-4.3,0-8-2.6-9.7-6.2H1.5c-0.9,6.1-1.4,12.3-1.5,18.7h69.7c1.8-3.7,5.4-6.2,9.7-6.2c6,0,10.9,4.9,10.9,10.9
			c0,6-4.9,10.9-10.9,10.9c-4.3,0-8-2.6-9.7-6.2H0.2c0.3,6.3,0.9,12.6,1.9,18.7h123.6c1.8-3.7,5.4-6.2,9.7-6.2
			c6,0,10.9,4.9,10.9,10.9c0,6-4.9,10.9-10.9,10.9c-4.3,0-8-2.6-9.7-6.2H3.9c1.5,6.4,3.4,12.6,5.6,18.7h141.1
			c1.8-3.7,5.4-6.2,9.7-6.2c6,0,10.9,4.9,10.9,10.9c0,6-4.9,10.9-10.9,10.9c-4.3,0-8-2.6-9.7-6.2H13.3c2.9,6.5,6.3,12.7,10,18.7H132
			c1.8-3.7,5.4-6.2,9.7-6.2c6,0,10.9,4.9,10.9,10.9s-4.9,10.9-10.9,10.9c-4.3,0-8-2.6-9.7-6.2H29.8c4.9,6.6,10.2,12.9,16.1,18.7
			h64.3c1.8-3.7,5.4-6.2,9.7-6.2c6,0,10.9,4.9,10.9,10.9c0,6-4.9,10.9-10.9,10.9c-4.3,0-8-2.6-9.7-6.2H56.4
			c26.2,21.3,59.7,34.1,96.1,34.1c57,0,106.7-31.3,132.9-77.7H271.6z"/>
	</g>
</g>
</svg>
