<svg version="1" xmlns="http://www.w3.org/2000/svg" width="828" height="828" viewBox="0 0 621.000000 621.000000"><path d="M286 .7C229.9 6 183.2 22.2 139 51.5 120.7 63.6 107.3 74.6 91 91 42.7 139.3 13.3 197.7 2.9 266.5c-2.6 17-3.6 52.5-2 70.1 9.6 104.5 68.3 194.8 159.7 245.7 101.2 56.4 229.8 50 325.2-16 101.8-70.5 152.1-192.2 129.7-313.4-19-102.3-90.5-190.1-187.3-229.8-28.2-11.6-58.5-19-89.6-22-9.9-1-44-1.3-52.6-.4zm60 15.9C426.2 27 496.4 68.5 544.7 134c11.3 15.3 26 39.9 23.2 38.8-.8-.4-7.9-3.7-15.9-7.4s-21-9.3-29-12.5l-14.4-5.8-8.1-9.3c-35.1-40.2-85.8-70-137.6-80.8-17.2-3.5-32.4-5-52.4-5-41.4 0-74.1 7.5-111.1 25.6-63.9 31.1-113.4 90-133.3 158.7-7.8 26.8-10.6 49.6-9.8 80.6.6 23.6 2.5 37.8 7.7 58 1.7 6.3 3 11.5 3 11.7 0 .1 3.9 1.7 8.7 3.4 55 20.2 109 33.2 153.8 37.1 15.9 1.4 51.1.6 65.1-1.5 40.6-6 79.7-20.7 112.9-42.3 33.4-21.8 54.5-46.9 65.4-77.6 2.4-6.8 3.7-13.5 5.6-29.5 1.5-11.4 3-21.8 3.4-23.1 1.1-3.8 5.1 21.9 5.8 37.4 1.2 27.2-5.7 53.2-20.6 77.8-6.8 11.3-16.3 22-29.4 33.3-38.5 33.1-87.9 53.3-143.1 58.5-16 1.5-55.6.6-71.1-1.6-46-6.4-90.6-19.8-139.5-42-16-7.2-49.2-24.3-52.5-26.9-5.2-4.2-11.3-40.4-12.2-71.7-1.4-50.8 8.2-94.8 30.7-140.4 15.2-30.9 31.2-53 56.9-78.5 49.7-49.5 112.8-78.5 182.8-84 14-1.1 41.7-.3 56.3 1.6zM372 153c61.4 3.6 121.7 21.3 192 56.5 9.6 4.8 18.7 9.6 20.1 10.6 2.1 1.4 3.3 4.1 5.7 12.6 8.1 27.9 11.1 47.1 11.9 75.8 1.3 49.2-8.3 92.3-30.3 136.5-29.8 59.8-78.4 106.7-140.2 135.3-13.2 6.1-39.4 14.9-54.2 18.3-45.1 10.1-89.8 9.7-134.7-1.2-72.2-17.5-136.1-63.5-175.9-126.6-6.4-10.2-20.8-37.7-20.1-38.4.2-.2 7.8 3.1 16.8 7.4 9 4.3 21.1 9.8 26.9 12.3 5.8 2.4 10.8 4.8 11.2 5.4 9.3 14.6 31.7 39.2 47.8 52.7 37.2 31.3 85 51.8 133.6 57.4 20.6 2.4 52.9 1.5 72.4-1.9 84.8-15 154.4-69.8 189.4-149.2 13.7-31 19.5-57.6 20.3-93.1.6-25.3-.4-38.8-4.7-59.3-3-14.6-10.5-39.1-12.4-40.3-2.1-1.4-30.1-10.9-45.1-15.4-31.4-9.4-64.7-16.7-93.5-20.6-19.6-2.6-58.8-3.1-75.5-1-28.1 3.6-53.7 10.7-79.1 21.7-55.4 24.2-91.1 57.7-104.8 98.6-1.7 5-3.5 14.7-5.2 28-1.4 11.2-2.9 21.5-3.2 22.7-1.1 3.5-5.2-22.7-5.9-37.3-1.2-26.6 5.9-52.6 21.2-77.5 9.2-15 29.1-33.9 51-48.7 28.7-19.3 65.9-33.1 105-38.9 9.2-1.3 17.9-2.1 39.5-3.2 1.4-.1 10.4.3 20 .8zm-49 71.4c15.6 2.9 27.8 9.2 39.3 20.4 31.7 31 29.5 82.3-4.9 110.6-22.7 18.7-53.9 21.9-81.4 8.4-7-3.4-10.2-5.8-18-13.7-7.7-7.8-10.4-11.2-13.8-18.1-6.5-13.1-8.6-22.8-7.9-37.5.3-7.7 1.2-14.2 2.5-18 6.4-20.3 20.3-36.6 38.7-45.5 15.3-7.4 29.6-9.4 45.5-6.6z"/></svg>