<?xml version="1.0" standalone="no"?>
<!DOCTYPE svg PUBLIC "-//W3C//DTD SVG 20010904//EN"
 "http://www.w3.org/TR/2001/REC-SVG-20010904/DTD/svg10.dtd">
<svg version="1.0" xmlns="http://www.w3.org/2000/svg"
 width="512.000000pt" height="512.000000pt" viewBox="0 0 512.000000 512.000000"
 preserveAspectRatio="xMidYMid meet">
<metadata>
Created by potrace 1.11, written by Peter Selinger 2001-2013
</metadata>
<g transform="translate(0.000000,512.000000) scale(0.100000,-0.100000)"
fill="#000000" stroke="none">
<path d="M2372 5110 c-865 -68 -1625 -555 -2049 -1315 -153 -275 -261 -614
-299 -941 -22 -189 -15 -526 15 -703 45 -265 114 -478 230 -716 196 -399 491
-740 853 -987 72 -48 331 -182 458 -236 193 -83 528 -172 714 -192 233 -24
534 -11 716 31 144 33 171 40 290 76 183 56 318 113 482 204 48 27 93 49 99
49 16 0 151 92 266 182 127 100 345 322 444 453 438 584 606 1301 474 2020
-174 942 -870 1709 -1796 1980 -277 81 -617 116 -897 95z m434 -21 c474 -47
938 -237 1309 -536 231 -186 499 -499 614 -718 38 -72 29 -60 -44 59 -31 49
-91 134 -135 190 -375 480 -864 795 -1442 931 -119 28 -132 29 -124 16 4 -5
-18 -3 -46 5 -92 25 -314 44 -448 38 -359 -15 -656 -82 -961 -219 -128 -58
-186 -90 -339 -190 -150 -98 -244 -172 -367 -289 -147 -140 -364 -413 -392
-494 -8 -20 -28 -62 -46 -92 -57 -96 -76 -140 -70 -161 4 -10 10 -19 15 -19
11 0 24 39 16 47 -7 7 65 144 101 191 13 18 43 44 66 59 23 14 46 33 51 42 5
9 34 40 64 69 50 48 67 57 99 53 6 -1 25 12 41 29 17 16 39 30 50 30 11 0 27
3 35 6 8 3 -6 -16 -30 -43 -93 -99 -207 -242 -281 -350 -41 -62 -79 -113 -82
-113 -11 0 -30 74 -30 114 0 21 5 47 11 59 9 16 9 19 0 11 -14 -13 -52 -86
-41 -79 5 3 13 -18 19 -46 6 -28 16 -59 21 -70 9 -15 1 -37 -38 -111 -27 -51
-71 -144 -97 -205 -26 -62 -52 -113 -56 -113 -16 0 -9 -28 7 -34 22 -8 31 1
16 16 -6 6 -8 16 -3 22 4 6 18 38 31 71 23 58 147 315 153 315 1 0 38 -35 81
-77 l78 -76 -17 -36 c-37 -75 -96 -214 -92 -217 2 -2 25 45 50 105 68 156 61
150 135 107 60 -36 187 -96 200 -96 4 0 -29 20 -73 43 -147 77 -270 171 -326
249 l-20 28 56 87 c99 151 269 363 311 386 9 5 37 11 62 14 27 3 51 12 59 21
17 23 16 33 -2 26 -11 -5 -15 1 -15 17 1 28 18 52 44 62 13 5 17 13 12 31 -8
31 22 45 41 20 7 -10 13 -21 13 -25 0 -12 37 -17 54 -7 36 20 25 0 -15 -26
-22 -15 -44 -25 -47 -21 -4 3 -6 20 -7 37 0 19 -6 33 -15 36 -8 3 -12 1 -8 -3
4 -4 2 -18 -3 -32 -6 -18 -6 -30 2 -40 9 -11 8 -16 -5 -26 -16 -12 -16 -14 3
-31 17 -16 19 -22 8 -34 -10 -13 -9 -15 4 -10 13 5 16 2 12 -13 -3 -11 0 -19
6 -19 7 0 -17 -33 -51 -72 -35 -40 -84 -100 -109 -133 -88 -114 -257 -390
-247 -400 2 -3 26 34 52 80 90 163 241 371 375 517 l52 57 32 -22 c18 -12 62
-35 98 -52 35 -16 65 -30 67 -31 2 -1 -30 -51 -71 -110 -83 -121 -116 -174
-100 -159 5 6 42 57 81 115 40 58 80 115 89 127 l18 22 65 -23 c36 -13 81 -26
100 -30 19 -3 -3 8 -50 25 -47 17 -89 35 -94 39 -17 17 212 270 389 430 39 35
50 48 25 29 -77 -58 -253 -234 -345 -344 -73 -87 -92 -104 -109 -99 -30 9 -95
43 -139 72 l-38 25 63 65 c69 70 235 209 311 261 27 18 46 35 43 38 -11 11
-307 -229 -395 -321 -19 -20 -39 -36 -45 -36 -6 0 -5 5 2 12 14 14 16 42 2 33
-19 -12 -10 15 11 33 56 46 99 92 99 106 0 9 5 16 10 16 6 0 10 11 10 24 0 15
15 40 37 63 107 112 119 127 96 120 -13 -4 -33 -10 -45 -13 l-23 -6 23 21 c13
11 30 17 37 14 9 -3 15 1 15 10 0 9 10 28 23 44 30 36 37 56 26 74 -8 12 -11
12 -22 -1 -6 -9 -41 -33 -77 -53 -36 -20 -80 -49 -98 -64 -22 -18 -31 -21 -26
-9 5 12 2 15 -10 10 -10 -4 -15 -13 -12 -20 3 -9 -4 -16 -22 -20 -15 -4 -37
-13 -50 -21 -13 -8 3 12 35 44 32 32 70 66 85 75 14 10 29 26 32 35 11 33 136
97 213 108 26 4 27 4 6 -7 -17 -8 -21 -17 -17 -34 4 -15 2 -24 -5 -24 -6 0
-11 5 -11 10 0 6 -7 10 -15 10 -8 0 -15 -4 -15 -10 0 -5 6 -10 14 -10 8 0 16
-6 19 -12 3 -9 10 -7 20 8 25 33 98 79 122 76 11 -2 34 2 50 8 19 7 31 8 39 0
7 -7 2 -10 -15 -10 -14 0 -34 -7 -45 -15 -19 -14 -19 -14 1 -16 11 0 0 -7 -25
-13 -27 -8 -50 -9 -56 -4 -8 6 -22 0 -40 -17 -22 -19 -24 -23 -9 -18 13 4 5
-8 -21 -34 -23 -22 -44 -53 -48 -69 -4 -16 -13 -32 -19 -36 -9 -6 -9 -8 0 -8
7 0 23 16 36 35 13 19 27 32 30 28 4 -3 1 -13 -6 -22 -15 -20 65 43 83 64 7 9
23 21 34 27 16 8 14 3 -8 -21 -17 -17 -25 -31 -18 -31 6 0 13 4 16 9 3 5 21
12 39 15 25 5 39 15 53 41 12 23 32 40 58 51 22 8 52 27 66 41 14 14 40 32 58
40 19 8 37 25 43 40 13 35 88 109 119 117 l25 7 -22 -18 c-11 -10 -37 -31 -57
-46 -37 -28 -48 -57 -22 -57 25 0 46 12 46 25 0 7 7 15 15 19 13 5 14 2 4 -15
-10 -20 -8 -20 38 -15 48 6 48 6 18 -9 -16 -8 -36 -14 -42 -15 -16 0 -17 -30
-2 -30 21 0 -50 -51 -105 -75 -39 -17 -54 -29 -50 -39 4 -10 -8 -22 -35 -35
-54 -28 -62 -27 -90 14 -15 22 -28 32 -34 26 -10 -10 19 -61 36 -61 6 0 -12
-15 -40 -32 -80 -51 -163 -154 -146 -181 4 -6 6 -20 5 -29 -2 -10 0 -18 4 -18
12 0 94 55 94 63 0 4 8 7 18 7 9 0 37 13 61 29 34 23 51 28 80 24 26 -4 52 2
84 16 42 19 49 20 69 7 24 -15 154 -47 185 -45 10 0 -25 11 -77 23 l-95 23 57
8 c32 4 63 13 69 21 6 8 18 14 25 14 8 0 14 5 14 10 0 14 40 48 81 68 19 9 38
27 44 40 5 12 18 22 27 22 10 0 22 9 28 20 11 20 82 60 107 60 7 0 13 5 13 10
0 6 -10 10 -21 10 -18 0 -19 3 -9 15 20 24 2 35 -55 35 -52 0 -77 12 -55 25 8
5 7 11 -1 22 -11 12 -8 13 17 7 40 -9 44 -12 37 -29 -4 -11 3 -15 28 -15 57 0
75 -9 85 -43 8 -28 13 -32 39 -29 17 2 80 5 140 6 61 1 123 8 139 14 35 15 47
7 20 -12 -18 -14 -18 -15 10 -22 19 -4 31 -2 36 6 4 7 15 10 24 7 19 -7 20 -3
6 23 -6 12 -18 17 -32 14 -13 -2 -7 2 12 8 19 6 38 16 42 22 3 5 20 8 37 7 51
-4 84 -3 120 1 25 3 39 -1 50 -14 8 -10 19 -18 24 -18 19 0 73 -57 69 -71 -5
-12 -2 -12 13 1 17 14 18 13 13 -2 -8 -20 27 -57 35 -36 3 7 6 8 6 2 2 -25
-27 -37 -60 -25 -57 20 -43 3 40 -49 44 -29 81 -54 81 -56 0 -3 -22 -2 -50 2
-49 6 -61 -1 -40 -22 8 -8 -4 -18 -37 -36 -36 -18 -48 -30 -47 -46 1 -27 -26
-29 -33 -3 -3 11 -17 21 -35 25 -45 9 -44 2 4 -33 29 -21 36 -31 24 -31 -27 0
-48 -31 -33 -49 10 -12 7 -13 -15 -7 -30 7 -39 -8 -12 -18 9 -4 15 -9 12 -12
-8 -8 -50 13 -83 41 l-30 26 43 -4 c31 -3 50 1 64 13 l22 17 -25 15 c-13 9
-48 18 -78 21 -29 4 -59 11 -67 18 -7 6 -17 8 -23 5 -5 -4 -16 0 -23 8 -20 19
-58 30 -58 16 0 -7 -7 -10 -15 -7 -8 4 -27 0 -42 -8 -15 -8 -33 -15 -38 -15
-6 0 -16 -9 -23 -21 -7 -12 -16 -18 -19 -15 -3 3 -19 -4 -35 -15 -37 -27 -30
-37 9 -13 l28 18 -21 -25 c-12 -13 -33 -43 -48 -66 -19 -31 -42 -51 -86 -73
-65 -33 -77 -54 -66 -116 10 -53 44 -64 94 -31 l39 25 24 -50 c22 -48 23 -51
5 -63 -10 -8 -15 -18 -12 -23 3 -5 0 -15 -8 -21 -10 -9 -17 -7 -27 6 -12 15
-12 16 4 10 19 -7 24 8 6 19 -8 4 -8 8 0 13 13 8 2 53 -12 48 -6 -2 -19 -15
-30 -29 -16 -21 -17 -29 -7 -48 17 -31 7 -46 -35 -54 -40 -8 -143 -74 -211
-135 -9 -8 -24 -11 -39 -7 -19 5 -25 2 -25 -10 0 -13 -7 -16 -32 -12 -58 9
-81 -14 -33 -32 14 -5 30 -21 37 -35 6 -14 15 -25 20 -25 11 0 1 -75 -13 -102
-11 -20 -64 -17 -156 8 -72 20 -96 9 -99 -44 -1 -24 -14 -62 -28 -87 -16 -26
-22 -45 -15 -45 8 0 10 -12 6 -35 -5 -28 -2 -35 14 -40 10 -4 23 -4 28 0 6 3
18 -6 27 -20 16 -25 42 -37 28 -12 -6 8 -3 8 9 -1 9 -8 19 -24 23 -35 4 -12
17 -36 30 -53 13 -17 24 -38 24 -47 0 -36 -25 -28 -74 24 -40 43 -47 55 -33
57 10 2 26 -2 35 -9 9 -7 7 -2 -5 11 -19 20 -24 21 -38 10 -14 -12 -30 1 -130
100 -63 63 -117 111 -121 107 -12 -11 12 -52 91 -157 41 -56 75 -104 75 -109
0 -10 -57 -61 -69 -61 -5 0 -14 7 -21 15 -13 16 -50 21 -50 7 0 -5 14 -21 30
-37 39 -38 38 -66 -4 -103 -53 -46 -66 -47 -137 -6 -35 20 -73 40 -84 45 -11
5 -33 18 -50 28 -33 22 -65 27 -65 11 0 -6 8 -14 17 -17 13 -5 156 -98 181
-118 2 -2 -30 -46 -70 -100 l-73 -97 -157 7 c-155 7 -177 3 -145 -23 7 -6 71
-21 142 -32 71 -11 133 -26 137 -33 18 -28 7 -125 -27 -232 -31 -97 -33 -112
-20 -131 13 -21 12 -22 -63 -38 -42 -10 -88 -21 -102 -26 -14 -5 -44 -11 -68
-13 -50 -6 -60 -13 -45 -28 8 -8 29 -8 75 1 35 7 92 18 128 25 36 7 76 16 90
19 24 7 28 1 70 -83 35 -73 59 -106 127 -173 l84 -83 109 1 c99 1 109 -1 97
-15 -6 -9 -18 -21 -26 -27 -8 -6 -12 -16 -10 -22 3 -8 23 1 53 23 38 27 60 35
95 36 42 2 43 2 14 8 l-33 6 35 24 35 24 39 -27 c21 -15 46 -41 56 -59 l17
-32 -40 -60 c-60 -93 -77 -124 -68 -132 4 -4 13 -1 19 8 40 53 58 71 64 65 4
-4 2 -16 -5 -26 -15 -24 -16 -50 -2 -50 6 0 10 4 10 9 0 5 24 41 52 80 55 74
75 84 112 56 11 -8 27 -15 36 -15 9 0 25 -9 34 -19 16 -18 16 -25 -14 -137
-18 -66 -36 -132 -40 -149 -4 -16 -18 -66 -30 -110 -64 -232 -68 -251 -51
-240 5 3 13 20 16 38 4 17 11 37 15 42 4 6 19 44 33 85 93 276 148 425 159
436 10 9 30 9 88 0 l75 -12 3 -34 c3 -27 1 -32 -10 -24 -7 6 -33 12 -58 13
-47 3 -61 14 -53 40 3 12 2 12 -7 -2 -6 -9 -8 -22 -5 -27 3 -5 -3 -19 -14 -31
l-20 -22 24 -46 c13 -25 40 -62 60 -81 48 -46 93 -136 110 -219 7 -36 16 -73
19 -82 5 -10 -5 -31 -28 -57 -19 -23 -37 -55 -41 -72 -4 -16 -11 -32 -16 -35
-5 -4 -9 -25 -9 -48 0 -36 9 -55 56 -121 52 -71 56 -81 50 -116 -7 -42 17
-102 54 -135 33 -30 74 -106 61 -115 -18 -11 -2 -37 31 -51 25 -10 36 -10 62
1 17 7 75 21 128 30 101 18 132 33 231 108 64 48 109 100 117 134 4 15 23 31
53 45 54 26 80 73 75 138 l-3 40 115 86 c73 55 118 96 126 115 18 43 21 168 5
187 -9 11 -12 40 -9 92 2 55 0 75 -9 75 -23 0 -14 26 40 111 30 46 69 109 87
140 18 31 62 89 97 128 35 40 74 93 87 119 60 119 115 372 81 372 -7 0 -15 -5
-17 -11 -3 -8 -23 -7 -72 4 -64 15 -85 23 -75 30 111 86 178 151 176 169 -1
16 9 29 36 47 20 13 37 31 37 39 0 8 11 35 24 61 13 25 30 79 37 119 12 70 12
73 -11 97 -12 13 -37 25 -54 27 -24 2 -34 10 -45 36 -8 17 -17 32 -20 32 -4 0
-14 -22 -24 -50 -13 -36 -23 -50 -37 -50 -10 0 -22 -5 -25 -10 -5 -8 -11 -7
-21 1 -15 12 -19 45 -6 52 4 2 1 2 -5 1 -7 -2 -13 1 -13 6 0 6 -5 10 -11 10
-6 0 -8 -9 -4 -20 4 -11 2 -20 -4 -20 -6 0 -12 5 -12 10 -1 6 -2 15 -3 21 0 6
-13 21 -28 33 -42 33 -89 111 -75 125 18 18 42 13 68 -15 72 -79 143 -104 172
-62 l15 23 28 -28 c22 -24 32 -28 58 -23 17 4 40 8 52 10 11 2 45 17 75 33
l55 30 43 -39 c24 -21 50 -38 57 -38 7 0 11 -6 8 -14 -3 -8 7 -23 24 -35 26
-18 31 -19 42 -6 7 8 9 23 6 32 -5 15 -4 15 9 -1 8 -11 29 -56 45 -100 16 -45
41 -103 54 -131 14 -27 43 -98 66 -157 53 -139 59 -143 76 -53 l8 40 6 -55
c12 -101 33 -127 54 -68 7 19 3 38 -17 81 l-25 55 33 32 32 31 7 -32 c3 -17 6
-50 6 -72 0 -22 3 -38 6 -34 4 3 3 46 -1 94 -6 72 -9 85 -19 69 -6 -11 -28
-38 -49 -60 -37 -40 -38 -40 -33 -13 4 15 -3 67 -14 115 -18 78 -20 111 -16
293 4 215 6 239 17 239 12 0 49 -66 73 -132 13 -35 27 -62 32 -61 5 1 10 -57
11 -128 1 -79 -2 -127 -8 -124 -11 7 -11 -2 0 -30 7 -16 11 -9 20 33 6 29 12
70 12 90 1 24 8 1 21 -67 15 -77 17 -105 9 -111 -12 -7 -9 -37 9 -100 5 -19
10 -46 9 -60 -1 -18 -4 -13 -10 15 -5 22 -11 50 -14 63 -3 13 -10 20 -15 17
-6 -3 -10 -2 -10 4 0 5 5 13 11 16 6 5 4 11 -7 19 -19 14 -11 36 13 36 12 0
14 7 9 31 -3 17 -6 39 -6 48 -1 9 -9 -10 -20 -41 -16 -46 -18 -66 -10 -106 24
-129 34 -351 22 -497 -6 -79 -9 -151 -6 -160 13 -32 -126 -498 -143 -482 -4 5
52 198 81 277 11 32 5 27 -71 -48 -46 -46 -83 -86 -83 -90 0 -4 4 -2 8 3 4 6
33 31 64 58 63 53 60 58 29 -42 -5 -16 -16 -44 -24 -62 -8 -19 -20 -50 -27
-69 -7 -19 -47 -102 -87 -185 -126 -253 -207 -391 -117 -200 47 101 118 302
128 365 7 42 5 37 -49 -134 -21 -65 -68 -178 -104 -251 -60 -121 -64 -131 -38
-111 33 24 82 89 123 163 25 46 44 66 44 48 0 -24 -115 -184 -173 -240 -40
-39 -105 -116 -145 -171 -73 -101 -211 -250 -290 -312 -23 -19 -42 -32 -42
-29 0 3 58 63 128 133 122 123 220 239 210 249 -3 3 -19 -14 -36 -38 -33 -45
-152 -181 -152 -173 0 2 -23 -19 -52 -47 -28 -29 -48 -46 -44 -38 9 14 -86
-59 -141 -110 -54 -48 -48 -33 11 33 50 54 159 205 180 248 11 23 -11 -6 -84
-111 -36 -51 -108 -136 -160 -188 l-95 -95 69 37 c37 21 66 32 64 25 -3 -7
-49 -36 -104 -63 -54 -28 -131 -72 -171 -98 -106 -70 -350 -176 -373 -162 -4
3 -32 -6 -61 -19 -61 -26 -130 -44 -114 -28 6 5 32 17 59 25 26 9 76 32 110
51 65 37 142 92 114 83 -9 -3 -77 -16 -150 -28 l-133 -21 -52 -51 c-29 -28
-50 -54 -47 -58 2 -4 -1 -11 -7 -15 -8 -5 -9 -3 -4 6 4 7 4 11 -1 8 -5 -2 -35
-16 -67 -32 -31 -15 -65 -26 -75 -23 -15 3 -15 5 3 11 11 5 33 13 49 19 36 13
119 75 145 108 l20 25 -32 -4 c-24 -4 -27 -7 -14 -11 16 -6 15 -9 -10 -32 -47
-43 -88 -68 -124 -74 -42 -8 -116 -16 -149 -17 -14 0 -31 -4 -37 -10 -17 -14
-17 -12 7 51 12 29 19 55 16 58 -2 2 -9 -11 -16 -31 -6 -19 -21 -50 -34 -69
l-23 -33 61 4 c44 2 57 0 46 -7 -13 -9 -66 -12 -250 -15 -65 -1 -278 12 -335
19 -66 10 -119 39 -192 109 -39 36 -79 66 -89 65 -17 -1 -17 -2 1 -7 11 -4 41
-29 65 -57 25 -27 38 -45 30 -39 -8 7 -57 21 -109 33 -52 13 -119 35 -150 51
-89 46 -93 52 -36 45 28 -3 46 -3 40 0 -15 6 -135 33 -135 29 0 -11 161 -107
220 -130 40 -15 67 -30 61 -32 -19 -6 -104 26 -175 68 -37 22 -73 37 -79 33
-5 -3 -7 -1 -3 5 11 18 -66 68 -134 86 -36 10 -87 27 -115 37 -61 22 -41 7 64
-52 44 -24 81 -47 81 -52 0 -11 -128 55 -201 105 -35 24 -103 63 -151 86 -47
24 -94 52 -104 63 -22 24 -10 24 24 0 15 -10 47 -28 72 -41 l45 -22 -57 51
c-65 59 -168 181 -223 264 -21 31 -40 57 -42 57 -10 0 58 -100 124 -182 30
-38 51 -68 48 -68 -8 0 -86 60 -103 80 -12 13 -13 13 -6 0 4 -8 -6 -1 -23 15
-16 17 -42 38 -57 48 -14 10 -24 23 -20 28 3 5 1 8 -4 7 -10 -3 -86 78 -150
160 -23 30 -42 49 -42 44 0 -26 189 -240 288 -326 24 -21 41 -40 38 -43 -12
-12 -136 109 -278 272 -6 6 -6 2 -2 -10 4 -11 5 -18 3 -15 -2 3 -15 18 -29 34
-14 16 -19 26 -12 22 18 -10 14 5 -7 33 -10 14 -17 30 -14 37 2 7 -6 36 -20
66 -13 29 -27 70 -31 90 -6 34 -5 38 18 44 13 3 33 1 44 -5 16 -8 21 -7 27 7
13 30 6 183 -11 244 -16 54 -16 60 0 76 9 10 16 22 16 25 0 4 11 25 25 47 28
44 34 124 13 163 -45 86 -180 230 -242 258 -14 7 -26 19 -26 26 0 23 -72 105
-87 99 -7 -3 -13 0 -13 6 0 7 -9 22 -21 34 -18 19 -19 25 -9 45 29 53 -11 217
-70 291 -61 75 -94 249 -57 296 5 7 7 16 3 19 -4 4 -11 2 -15 -5 -6 -10 -11
-10 -21 3 -7 8 -19 15 -26 15 -8 0 -14 5 -14 10 0 6 5 10 10 10 18 0 10 18
-10 23 -14 4 -20 14 -20 35 0 17 5 32 11 34 19 6 -4 64 -24 60 -13 -2 -15 7
-11 55 6 69 23 164 33 178 4 6 8 26 9 45 0 19 6 49 13 65 7 17 13 37 14 45 6
51 67 207 135 345 241 490 608 858 1104 1107 276 139 529 209 901 252 73 8
371 5 471 -5z m-593 -79 c35 -1 39 -3 24 -11 -18 -10 -18 -12 -1 -30 22 -24
17 -28 -23 -17 -21 5 -30 13 -27 22 6 17 -22 40 -41 33 -8 -4 -17 -2 -20 2 -3
5 -15 7 -28 4 -12 -3 -19 -3 -16 0 3 4 23 10 45 15 29 6 40 5 42 -5 2 -8 19
-13 45 -13z m-78 -40 c-3 -5 -12 -7 -20 -3 -21 7 -19 13 6 13 11 0 18 -4 14
-10z m1073 -18 c-24 -5 -23 -19 2 -27 18 -6 29 -35 14 -35 -15 0 -124 53 -124
60 0 5 19 6 43 2 38 -5 41 -4 28 11 -12 15 -10 16 20 5 24 -9 29 -13 17 -16z
m-1108 -3 c0 -5 -8 -9 -17 -9 -15 0 -16 -2 -3 -10 9 -6 10 -10 3 -10 -19 0
-26 19 -13 35 12 15 30 12 30 -6z m-262 -44 c-3 -4 -30 -8 -59 -10 -35 -3 -48
-1 -39 5 8 5 22 7 31 5 9 -3 27 -1 40 4 24 9 38 6 27 -4z m1181 -1 c3 -4 -15
-4 -41 -2 -27 3 -52 1 -59 -6 -10 -9 -10 -7 0 6 9 13 23 16 53 13 22 -2 43 -7
47 -11z m101 2 c0 -8 -51 -13 -56 -5 -3 5 9 9 25 9 17 0 31 -2 31 -4z m-965
-26 c13 -6 15 -9 5 -9 -8 0 -22 4 -30 9 -18 12 -2 12 25 0z m-411 -35 c-22
-17 -34 -19 -34 -6 0 5 8 12 18 14 32 9 36 7 16 -8z m-22 -47 c-7 -7 -12 -8
-12 -2 0 14 12 26 19 19 2 -3 -1 -11 -7 -17z m1688 -183 c19 -19 32 -35 29
-35 -3 0 -20 16 -39 35 -19 19 -32 35 -29 35 3 0 20 -16 39 -35z m-1306 -20
c-4 -8 -11 -15 -16 -15 -6 0 -5 6 2 15 7 8 14 15 16 15 2 0 1 -7 -2 -15z
m-1029 -115 c-3 -5 -16 -15 -28 -21 -21 -10 -21 -9 2 10 25 23 36 27 26 11z
m-135 -45 c-7 -9 -15 -13 -17 -11 -7 7 7 26 19 26 6 0 6 -6 -2 -15z m-30 -29
c0 -2 -8 -10 -17 -17 -16 -13 -17 -12 -4 4 13 16 21 21 21 13z m1925 -6 c4 -6
-5 -26 -19 -45 -14 -18 -24 -40 -22 -47 2 -7 7 -25 10 -40 9 -42 37 -52 93
-33 47 16 80 14 68 -5 -3 -5 -19 -10 -35 -10 -54 0 -81 -27 -46 -47 8 -4 18
-21 22 -37 l7 -29 -31 23 c-37 28 -46 22 -45 -27 1 -48 -26 -80 -54 -62 -17
10 -27 8 -62 -11 -39 -23 -42 -23 -54 -6 -12 16 -17 17 -36 6 -30 -16 -33 -10
-10 19 10 13 25 21 33 18 8 -3 17 0 19 8 3 7 19 16 36 20 34 7 37 15 20 47 -9
17 -7 25 16 45 l26 25 -21 23 c-18 19 -21 30 -15 57 4 18 16 39 26 46 11 7 19
23 19 36 0 12 3 26 7 29 10 11 41 8 48 -3z m-1759 -318 l-29 -27 23 32 c13 18
26 30 29 28 3 -3 -8 -18 -23 -33z m3044 -62 c0 -13 -1 -13 -10 0 -5 8 -10 22
-10 30 0 13 1 13 10 0 5 -8 10 -22 10 -30z m-190 -156 c0 -6 -7 -17 -15 -24
-12 -10 -18 -10 -30 0 -8 7 -15 17 -15 22 0 6 7 5 15 -2 8 -7 15 -8 15 -2 0
14 -25 33 -33 25 -4 -3 -7 -2 -7 3 0 6 5 15 12 22 9 9 17 7 35 -10 13 -12 23
-27 23 -34z m-204 1 c4 -8 2 -21 -3 -28 -24 -31 -22 -47 7 -62 16 -9 45 -29
64 -45 26 -23 32 -35 28 -55 -3 -17 0 -25 9 -25 8 0 20 -13 27 -29 7 -16 27
-44 45 -61 26 -26 29 -32 17 -40 -42 -27 -122 3 -139 52 -6 17 -11 38 -11 46
0 9 -34 48 -76 87 l-76 72 23 44 c13 24 29 47 34 51 17 13 45 9 51 -7z m-336
-44 c0 -5 -7 -12 -16 -15 -12 -5 -13 -10 -6 -19 6 -7 9 -23 5 -35 -4 -18 0
-23 23 -28 45 -9 139 -76 142 -102 2 -12 0 -23 -5 -24 -67 -12 -122 -10 -158
7 -35 16 -95 7 -124 -19 -10 -9 -34 -16 -54 -16 -31 0 -37 3 -37 21 0 16 -5
20 -19 16 -14 -3 -18 1 -18 19 0 14 3 27 8 30 4 2 6 11 3 18 -9 22 39 101 64
104 12 2 22 -1 22 -7 0 -6 10 -11 23 -12 12 0 16 -3 10 -6 -16 -6 -17 -23 -2
-23 7 0 18 -8 25 -17 12 -17 14 -17 30 -1 17 17 17 18 0 31 -23 17 -16 30 32
62 40 26 52 30 52 16z m1431 -152 c22 -45 39 -83 37 -85 -2 -2 -23 35 -46 81
-23 47 -40 85 -37 85 3 0 23 -36 46 -81z m-2127 11 c4 0 31 -18 61 -40 l55
-41 -15 -29 c-15 -28 -35 -40 -35 -21 0 5 -11 11 -24 15 -30 7 -111 127 -93
138 6 4 19 0 28 -8 8 -7 19 -14 23 -14z m-175 -115 c-1 -110 -10 -125 -69
-125 -45 0 -43 -2 -75 87 -37 102 -32 119 31 100 24 -7 38 -5 70 11 21 12 40
21 42 22 1 0 2 -43 1 -95z m1366 85 c3 -5 1 -10 -4 -10 -6 0 -11 5 -11 10 0 6
2 10 4 10 3 0 8 -4 11 -10z m-1201 -109 c25 -24 40 -32 43 -23 5 13 43 17 43
5 0 -5 -3 -18 -6 -31 -6 -21 -11 -23 -78 -20 l-71 3 -3 64 c-3 73 -6 73 72 2z
m213 -43 c14 -11 15 -11 8 1 -5 8 6 5 23 -8 18 -12 36 -19 42 -16 6 3 7 -1 4
-9 -3 -9 -2 -16 4 -16 16 0 23 31 11 47 -7 7 -10 14 -8 16 37 21 52 27 69 27
11 0 20 -3 20 -6 0 -3 -19 -30 -42 -59 -48 -62 -78 -72 -141 -48 -23 9 -44 18
-46 19 -3 3 17 98 27 124 4 8 8 -1 10 -22 2 -20 10 -42 19 -50z m1983 37 c0
-5 -5 -3 -10 5 -5 8 -10 20 -10 25 0 6 5 3 10 -5 5 -8 10 -19 10 -25z m-1710
5 c0 -5 -7 -10 -15 -10 -8 0 -15 5 -15 10 0 6 7 10 15 10 8 0 15 -4 15 -10z
m-898 -72 c24 -107 24 -105 -18 -117 -22 -6 -44 -11 -50 -11 -13 0 -46 46 -82
111 l-13 24 17 -22 c9 -13 23 -23 30 -23 8 0 13 -3 13 -7 -1 -5 -1 -12 0 -18
2 -14 31 44 31 61 0 22 42 66 53 55 5 -5 14 -29 19 -53z m1433 41 c11 -17 -1
-21 -15 -4 -8 9 -8 15 -2 15 6 0 14 -5 17 -11z m1205 -44 c0 -5 -5 -3 -10 5
-5 8 -10 20 -10 25 0 6 5 3 10 -5 5 -8 10 -19 10 -25z m29 -85 c0 -8 -7 1 -14
20 -18 46 -17 64 0 25 8 -16 14 -37 14 -45z m-1714 0 c18 0 35 5 37 11 3 8 12
7 33 -3 l28 -15 -49 -36 c-92 -67 -111 -70 -168 -23 l-28 24 18 33 c34 61 34
61 66 34 19 -16 42 -25 63 -25z m215 18 c0 -13 -40 -58 -50 -58 -4 0 1 18 12
40 18 36 38 46 38 18z m255 -58 c3 -5 1 -10 -4 -10 -6 0 -11 5 -11 10 0 6 2
10 4 10 3 0 8 -4 11 -10z m1279 -80 c4 -24 3 -29 -3 -15 -4 11 -11 36 -15 55
-4 24 -3 29 3 15 4 -11 11 -36 15 -55z m-1508 15 c5 -26 1 -44 -16 -72 -16
-29 -17 -34 -4 -21 15 15 19 15 28 3 9 -12 18 -13 45 -5 61 17 43 5 -42 -29
-45 -18 -92 -40 -105 -48 -21 -13 -26 -12 -48 2 -46 30 -41 42 42 126 43 43
82 79 86 79 4 0 10 -16 14 -35z m-1476 -152 c0 -26 -19 -21 -71 18 -30 23 -44
38 -33 35 26 -8 39 16 24 44 -22 41 -8 30 35 -26 24 -32 45 -64 45 -71z m1902
105 c-7 -7 -12 -8 -12 -2 0 6 3 14 7 17 3 4 9 5 12 2 2 -3 -1 -11 -7 -17z
m1105 -60 c-3 -8 -6 -5 -6 6 -1 11 2 17 5 13 3 -3 4 -12 1 -19z m10 -40 c-3
-8 -6 -5 -6 6 -1 11 2 17 5 13 3 -3 4 -12 1 -19z m-3057 -99 c0 -5 -4 -17 -9
-27 -5 -9 -12 -25 -15 -34 -8 -25 -29 -22 -91 13 -59 33 -70 44 -30 29 23 -9
27 -6 47 35 l22 45 -25 27 c-13 15 4 3 39 -26 34 -29 62 -57 62 -62z m3027 79
c-3 -8 -6 -5 -6 6 -1 11 2 17 5 13 3 -3 4 -12 1 -19z m10 -50 c-3 -7 -5 -2 -5
12 0 14 2 19 5 13 2 -7 2 -19 0 -25z m-1439 -12 c-10 -7 -15 -16 -11 -20 4 -4
0 -4 -10 -1 -25 10 63 -117 98 -140 18 -12 36 -38 47 -68 l18 -47 -43 0 c-41
0 -43 2 -82 62 -26 40 -35 63 -27 66 6 2 12 10 12 18 0 18 -62 19 -90 2 -28
-18 -55 1 -55 37 0 26 8 33 75 67 79 40 96 46 68 24z m1479 -28 c-3 -8 -6 -5
-6 6 -1 11 2 17 5 13 3 -3 4 -12 1 -19z m10 -50 c-3 -7 -5 -2 -5 12 0 14 2 19
5 13 2 -7 2 -19 0 -25z m-3184 -79 c27 -22 30 -29 19 -42 -8 -9 -26 -14 -45
-13 -18 2 -54 4 -82 6 -27 2 -39 5 -25 7 15 2 34 18 47 37 20 31 20 34 5 51
-15 16 -14 16 16 -1 19 -11 48 -31 65 -45z m3194 29 c-3 -7 -5 -2 -5 12 0 14
2 19 5 13 2 -7 2 -19 0 -25z m-1515 -50 c8 -13 24 -40 37 -61 l23 -37 -66 2
c-51 2 -66 6 -66 18 0 9 -8 26 -17 40 -9 13 -13 25 -7 27 5 2 20 10 34 17 36
20 46 19 62 -6z m-3465 -50 c-3 -7 -5 -2 -5 12 0 14 2 19 5 13 2 -7 2 -19 0
-25z m5000 -115 c-3 -10 -5 -4 -5 12 0 17 2 24 5 18 2 -7 2 -21 0 -30z m-3237
3 c26 -12 29 -41 7 -62 -7 -7 -48 -14 -92 -16 -44 -3 -70 -3 -57 -1 19 4 22
11 22 48 0 37 -3 44 -22 49 -13 2 9 2 47 -1 39 -2 81 -10 95 -17z m1962 -43
c33 -35 83 -144 72 -156 -3 -3 -17 -1 -32 4 -15 5 -40 11 -55 14 -16 3 -42 20
-59 38 -40 43 -81 114 -73 127 3 5 30 10 59 10 47 0 55 -4 88 -37z m-125 -48
c23 -36 37 -65 30 -65 -20 0 -219 40 -228 46 -5 3 -9 16 -9 28 0 32 41 48 145
54 14 1 32 -17 62 -63z m-3620 -52 c-3 -10 -5 -2 -5 17 0 19 2 27 5 18 2 -10
2 -26 0 -35z m1815 -43 c21 -17 22 -20 7 -35 -10 -10 -39 -21 -65 -26 -27 -5
-58 -12 -69 -15 -19 -6 -19 -5 -2 8 29 22 13 66 -27 76 -24 7 -13 9 51 10 67
1 86 -2 105 -18z m1718 -60 c46 -6 87 -13 91 -16 3 -2 31 -6 60 -10 68 -8 75
-14 17 -14 -30 0 -54 -7 -69 -18 l-22 -19 33 -6 c18 -4 31 -9 29 -11 -2 -3
-33 2 -69 10 -36 9 -83 19 -105 23 -36 8 -105 30 -113 37 -2 1 2 12 8 24 8 15
18 20 33 17 12 -3 60 -11 107 -17z m439 -50 l36 0 -24 -19 c-52 -40 -154 -31
-143 11 4 18 10 20 50 14 25 -3 61 -6 81 -6z m-2111 -42 c2 -21 1 -38 -1 -38
-3 0 -31 -11 -63 -25 -33 -14 -50 -18 -38 -10 20 15 21 17 5 50 -12 25 -23 34
-40 35 -39 0 -17 11 41 20 85 13 93 10 96 -32z m1622 -18 c36 -7 85 -18 110
-25 l45 -12 -52 1 c-50 1 -53 0 -106 -57 -40 -42 -54 -63 -50 -77 4 -16 -2
-13 -32 14 -20 19 -45 41 -55 49 -15 13 -16 20 -6 58 20 78 12 76 146 49z
m233 3 c-7 -2 -19 -2 -25 0 -7 3 -2 5 12 5 14 0 19 -2 13 -5z m-36 -49 c-3 -3
-12 -4 -19 -1 -8 3 -5 6 6 6 11 1 17 -2 13 -5z m-3660 -51 c-3 -10 -5 -4 -5
12 0 17 2 24 5 18 2 -7 2 -21 0 -30z m1932 -71 c22 -37 41 -73 41 -78 0 -5
-18 -28 -40 -49 -22 -21 -40 -34 -40 -28 0 7 4 14 9 18 6 3 -2 28 -17 56 -15
28 -33 63 -41 77 -8 15 -24 36 -36 48 l-23 21 37 10 c20 5 43 6 52 2 9 -5 35
-39 58 -77z m-1922 -9 c-3 -10 -5 -4 -5 12 0 17 2 24 5 18 2 -7 2 -21 0 -30z
m3300 -47 c-43 -15 -76 -31 -73 -33 3 -3 -3 -18 -13 -32 -15 -21 -17 -31 -9
-46 9 -16 6 -16 -16 4 -14 14 -26 34 -26 46 0 12 24 48 55 82 l54 60 53 -26
53 -26 -78 -29z m-3290 -8 c-3 -7 -5 -2 -5 12 0 14 2 19 5 13 2 -7 2 -19 0
-25z m10 -50 c-3 -8 -6 -5 -6 6 -1 11 2 17 5 13 3 -3 4 -12 1 -19z m3563 -72
c0 -14 5 -28 10 -31 6 -3 10 -12 10 -18 -1 -7 -10 -1 -20 12 -21 25 -27 61
-10 61 6 0 10 -11 10 -24z m-429 -13 c19 -21 20 -25 6 -20 -12 5 -27 -1 -44
-17 -22 -21 -24 -26 -13 -47 17 -32 7 -22 -24 24 -31 45 -31 45 -9 69 23 26
56 22 84 -9z m-3104 -45 c-3 -8 -6 -5 -6 6 -1 11 2 17 5 13 3 -3 4 -12 1 -19z
m22 -68 c0 -9 -4 -8 -9 5 -5 11 -9 27 -9 35 0 9 4 8 9 -5 5 -11 9 -27 9 -35z
m2987 2 c13 -20 14 -24 2 -15 -8 7 -17 11 -20 8 -3 -3 -10 6 -16 19 -15 34 10
25 34 -12z m-68 -4 c8 -22 8 -28 0 -20 -18 18 -88 -22 -88 -51 -1 -15 -5 -10
-15 18 -15 39 -14 41 11 63 38 33 77 29 92 -10z m-2911 -40 c-3 -8 -6 -5 -6 6
-1 11 2 17 5 13 3 -3 4 -12 1 -19z m2742 -10 c5 -13 11 -34 15 -48 6 -24 6
-24 -5 -3 -9 18 -17 20 -48 16 -93 -14 -105 -18 -112 -43 -5 -19 -7 -13 -8 22
-1 44 1 48 27 54 15 3 36 9 47 14 39 17 75 11 84 -12z m681 -11 c0 -2 -8 -25
-18 -52 -22 -64 -47 -70 -68 -18 l-16 38 32 27 c26 21 37 25 52 17 10 -5 18
-11 18 -12z m-170 -21 c0 -3 -4 -8 -10 -11 -5 -3 -10 -1 -10 4 0 6 5 11 10 11
6 0 10 -2 10 -4z m-3206 -86 c5 -17 4 -20 -2 -10 -5 8 -13 26 -16 40 -5 17 -4
20 2 10 5 -8 13 -26 16 -40z m26 -65 c0 -5 -5 -3 -10 5 -5 8 -10 20 -10 25 0
6 5 3 10 -5 5 -8 10 -19 10 -25z m3164 -69 c1 -27 6 -48 14 -51 6 -2 12 -13
12 -24 0 -11 5 -23 10 -26 12 -7 14 -35 3 -35 -15 1 -52 96 -59 150 -5 44 -4
53 6 43 7 -7 13 -32 14 -57z m-3144 19 c0 -5 -5 -3 -10 5 -5 8 -10 20 -10 25
0 6 5 3 10 -5 5 -8 10 -19 10 -25z m59 -122 c28 -57 49 -103 46 -103 -5 0
-105 196 -105 206 0 13 7 0 59 -103z m3187 0 c-7 -7 -26 7 -26 19 0 6 6 6 15
-2 9 -7 13 -15 11 -17z m-142 -57 c-3 -9 -10 -16 -15 -16 -6 0 -5 9 1 21 13
24 24 20 14 -5z m218 -31 c5 -43 -5 -134 -13 -120 -12 20 -19 64 -10 69 4 3 7
24 6 46 -3 49 11 54 17 5z m-3152 -114 c59 -101 145 -218 250 -341 40 -47 58
-71 41 -55 -77 71 -248 299 -321 428 -51 91 -28 66 30 -32z m4140 -165 c0 -2
-8 -10 -17 -17 -16 -13 -17 -12 -4 4 13 16 21 21 21 13z m-3410 -539 c0 -6 -9
-2 -20 8 -11 10 -20 23 -20 28 0 6 9 2 20 -8 11 -10 20 -23 20 -28z m2800 -11
c0 -2 -8 -10 -17 -17 -16 -13 -17 -12 -4 4 13 16 21 21 21 13z m-10 -80 c0 -2
-7 -7 -16 -10 -8 -3 -12 -2 -9 4 6 10 25 14 25 6z m-2310 -163 l25 -26 -30 20
c-16 11 -43 25 -60 31 l-30 12 35 -6 c19 -3 46 -17 60 -31z m1755 -19 c-54
-42 -142 -77 -225 -91 -19 -3 -43 -9 -52 -14 -31 -17 -30 -9 7 34 36 42 37 42
153 63 147 27 141 26 117 8z"/>
<path d="M2630 4780 c0 -5 -11 -10 -25 -10 -34 0 -32 -22 4 -59 30 -31 41 -31
41 1 0 20 16 25 22 6 3 -7 11 -9 24 -4 18 8 18 9 -3 19 -21 9 -22 11 -5 23 15
12 15 15 2 24 -19 13 -60 13 -60 0z"/>
<path d="M3029 4785 c-4 -16 -6 -22 -13 -37 -10 -21 58 -124 87 -132 32 -8 67
-7 67 2 0 4 -15 13 -33 20 -37 13 -83 83 -79 118 2 12 -4 24 -12 27 -9 4 -17
4 -17 2z"/>
<path d="M3210 4741 c0 -9 30 -24 36 -18 2 1 -6 8 -16 15 -11 7 -20 8 -20 3z"/>
<path d="M3190 4620 c0 -6 7 -10 15 -10 8 0 15 2 15 4 0 2 -7 6 -15 10 -8 3
-15 1 -15 -4z"/>
<path d="M3105 4560 c3 -5 13 -10 21 -10 8 0 12 5 9 10 -3 6 -13 10 -21 10 -8
0 -12 -4 -9 -10z"/>
<path d="M2183 4483 c9 -2 23 -2 30 0 6 3 -1 5 -18 5 -16 0 -22 -2 -12 -5z"/>
<path d="M2238 4479 c-8 -6 1 -9 25 -9 20 0 37 2 37 4 0 9 -50 12 -62 5z"/>
<path d="M1993 4458 c-13 -16 -15 -22 -5 -25 9 -4 10 -9 2 -18 -8 -9 -2 -16
22 -28 29 -14 36 -14 77 2 33 12 47 23 49 39 4 23 0 25 -60 24 -21 -1 -38 3
-38 7 0 19 -29 18 -47 -1z"/>
<path d="M2338 4463 c12 -2 32 -2 45 0 12 2 2 4 -23 4 -25 0 -35 -2 -22 -4z"/>
<path d="M1934 4388 l-19 -23 23 19 c21 18 27 26 19 26 -2 0 -12 -10 -23 -22z"/>
<path d="M1894 4338 l-19 -23 23 19 c21 18 27 26 19 26 -2 0 -12 -10 -23 -22z"/>
<path d="M2204 4304 c3 -9 6 -19 6 -22 0 -9 20 21 20 31 0 4 -7 7 -16 7 -11 0
-14 -5 -10 -16z"/>
<path d="M1859 4293 c-13 -16 -12 -17 4 -4 9 7 17 15 17 17 0 8 -8 3 -21 -13z"/>
<path d="M1829 4253 c-13 -16 -12 -17 4 -4 16 13 21 21 13 21 -2 0 -10 -8 -17
-17z"/>
<path d="M2310 4245 c-10 -12 -10 -15 3 -15 8 0 17 7 21 15 3 8 2 15 -3 15 -5
0 -14 -7 -21 -15z"/>
<path d="M2265 4200 c3 -5 8 -10 11 -10 2 0 4 5 4 10 0 6 -5 10 -11 10 -5 0
-7 -4 -4 -10z"/>
<path d="M1772 4173 c-26 -38 -34 -53 -29 -53 2 0 16 18 31 40 29 45 28 56 -2
13z"/>
<path d="M2155 4170 c-27 -30 -12 -34 15 -5 13 14 19 25 13 25 -5 0 -18 -9
-28 -20z"/>
<path d="M2191 4170 c-13 -11 -23 -31 -23 -45 0 -14 -4 -22 -9 -19 -5 3 -9 1
-9 -5 0 -15 23 -26 28 -13 2 7 9 12 15 12 8 0 7 -4 -1 -12 -16 -16 -15 -28 2
-28 19 0 36 -23 28 -37 -4 -6 -16 -11 -27 -10 -14 1 -20 -4 -20 -17 0 -11 -6
-21 -13 -24 -20 -6 -14 -22 11 -23 14 0 17 -2 7 -6 -8 -3 -23 -12 -32 -21 -21
-18 -25 -40 -5 -23 8 6 17 8 20 4 4 -3 12 -1 19 4 7 6 42 9 76 7 53 -2 63 0
58 12 -3 8 1 17 9 20 21 9 18 35 -4 41 -12 3 -23 17 -26 34 -4 16 -11 29 -16
29 -5 0 -9 8 -9 18 0 10 -5 23 -12 30 -9 9 -8 16 5 30 23 25 21 32 -5 33 -13
0 -17 3 -10 6 20 8 14 23 -10 23 -13 -1 -34 -10 -47 -20z"/>
<path d="M965 4170 c-3 -5 -2 -10 4 -10 5 0 13 5 16 10 3 6 2 10 -4 10 -5 0
-13 -4 -16 -10z"/>
<path d="M2100 4075 c-7 -8 -18 -15 -25 -15 -7 0 -18 -12 -24 -27 -6 -16 -16
-36 -23 -45 -19 -26 -3 -33 44 -18 54 17 68 28 68 51 0 10 7 22 16 27 14 8 14
10 -1 25 -20 21 -39 22 -55 2z"/>
<path d="M1680 4030 c-6 -11 -8 -20 -6 -20 3 0 10 9 16 20 6 11 8 20 6 20 -3
0 -10 -9 -16 -20z"/>
<path d="M1568 3923 c7 -3 16 -2 19 1 4 3 -2 6 -13 5 -11 0 -14 -3 -6 -6z"/>
<path d="M464 3848 l-19 -23 23 19 c21 18 27 26 19 26 -2 0 -12 -10 -23 -22z"/>
<path d="M1117 3713 c-2 -5 -17 -30 -32 -58 -16 -27 -24 -45 -18 -40 14 14 66
105 60 105 -3 0 -8 -3 -10 -7z"/>
<path d="M291 3573 c-9 -22 -10 -23 -7 -5 3 15 0 22 -7 19 -7 -2 -23 -53 -37
-113 -14 -60 -33 -121 -44 -137 -15 -22 -16 -30 -6 -42 6 -8 12 -29 13 -47 1
-27 5 -33 24 -34 21 -2 23 2 23 41 0 48 -8 75 -21 75 -5 0 -9 -9 -9 -20 0 -11
-5 -20 -11 -20 -6 0 -8 7 -5 16 3 9 6 22 6 30 0 8 7 14 15 14 8 0 15 5 15 10
0 6 9 10 20 10 11 0 20 7 20 15 0 18 -17 20 -23 3 -2 -7 -6 -11 -9 -8 -9 10
25 160 37 160 10 0 35 40 35 55 0 16 -20 0 -29 -22z"/>
<path d="M1019 3539 c-16 -34 -29 -63 -27 -65 2 -2 18 26 36 61 17 36 30 65
27 65 -3 0 -19 -27 -36 -61z"/>
<path d="M281 3508 c0 -9 -4 -25 -7 -35 -5 -14 -4 -15 5 -7 7 7 11 22 8 35 -2
13 -5 16 -6 7z"/>
<path d="M965 3429 c-9 -17 -15 -33 -13 -35 3 -2 12 12 21 31 21 43 13 47 -8
4z"/>
<path d="M476 3114 c-9 -26 -14 -49 -12 -51 2 -2 11 17 20 43 9 26 14 49 12
51 -2 2 -11 -17 -20 -43z"/>
<path d="M237 3108 c-19 -41 -30 -78 -23 -78 2 0 10 17 16 38 7 20 19 45 28
55 8 9 10 17 5 17 -6 0 -17 -15 -26 -32z"/>
<path d="M281 3124 c0 -11 3 -14 6 -6 3 7 2 16 -1 19 -3 4 -6 -2 -5 -13z"/>
<path d="M274 3075 c1 -23 16 -37 16 -16 0 5 3 16 6 25 4 10 1 16 -9 16 -10 0
-14 -9 -13 -25z"/>
<path d="M267 3013 c-5 -27 -2 -41 7 -32 11 10 17 59 8 59 -5 0 -12 -12 -15
-27z"/>
<path d="M201 2994 c0 -11 3 -14 6 -6 3 7 2 16 -1 19 -3 4 -6 -2 -5 -13z"/>
<path d="M4870 2977 c0 -12 20 -49 40 -72 28 -33 30 -62 6 -97 -35 -53 -40
-62 -29 -55 5 3 22 23 36 44 24 34 25 43 16 76 -5 20 -14 37 -19 37 -5 0 -18
17 -29 38 -11 20 -20 33 -21 29z"/>
<path d="M260 2956 c0 -8 -9 -35 -20 -60 -10 -25 -15 -46 -10 -46 10 0 32 47
44 93 4 16 2 27 -4 27 -5 0 -10 -6 -10 -14z"/>
<path d="M170 2910 c0 -5 5 -10 10 -10 6 0 10 5 10 10 0 6 -4 10 -10 10 -5 0
-10 -4 -10 -10z"/>
<path d="M267 2883 c-4 -3 -7 -11 -7 -17 0 -6 5 -5 12 2 6 6 9 14 7 17 -3 3
-9 2 -12 -2z"/>
<path d="M240 2732 c0 -11 99 -97 104 -91 2 2 -21 26 -50 52 -30 27 -54 44
-54 39z"/>
<path d="M4705 2670 c4 -14 12 -29 17 -35 7 -7 8 -2 3 15 -4 14 -12 30 -17 35
-7 7 -8 2 -3 -15z"/>
<path d="M4973 2530 c0 -47 2 -66 4 -42 2 23 2 61 0 85 -2 23 -4 4 -4 -43z"/>
<path d="M4226 2514 c-9 -8 -16 -17 -16 -19 0 -9 44 13 48 23 5 17 -14 15 -32
-4z"/>
<path d="M4757 2473 c-4 -6 -5 -18 -2 -25 3 -8 7 -49 8 -91 2 -49 7 -81 16
-89 11 -11 13 2 8 77 -6 93 -19 147 -30 128z"/>
<path d="M4968 2260 c-9 -136 -31 -263 -49 -288 -37 -49 -114 -121 -120 -111
-3 6 -9 -1 -11 -15 l-5 -25 27 19 c31 22 100 96 124 132 9 14 19 41 21 59 16
118 26 251 23 294 -2 33 -6 11 -10 -65z"/>
<path d="M4770 2206 c0 -8 5 -18 10 -21 6 -3 10 3 10 14 0 12 -4 21 -10 21 -5
0 -10 -6 -10 -14z"/>
<path d="M4770 2150 c0 -5 5 -10 10 -10 6 0 10 5 10 10 0 6 -4 10 -10 10 -5 0
-10 -4 -10 -10z"/>
<path d="M4735 1930 c4 -6 11 -8 16 -5 14 9 11 15 -7 15 -8 0 -12 -5 -9 -10z"/>
<path d="M4801 1924 c0 -11 3 -14 6 -6 3 7 2 16 -1 19 -3 4 -6 -2 -5 -13z"/>
<path d="M4762 1880 c0 -14 2 -19 5 -12 2 6 2 18 0 25 -3 6 -5 1 -5 -13z"/>
<path d="M4750 1819 c0 -7 -8 -18 -17 -26 -16 -13 -16 -13 5 -3 19 9 32 40 17
40 -3 0 -5 -5 -5 -11z"/>
<path d="M4317 1793 c-10 -9 -9 -23 2 -23 5 0 11 7 15 15 5 15 -5 20 -17 8z"/>
<path d="M4724 1744 c-18 -14 -18 -15 4 -4 12 6 22 13 22 15 0 8 -5 6 -26 -11z"/>
<path d="M4766 1724 c-4 -20 -5 -38 -3 -40 3 -3 8 11 11 32 4 20 5 38 3 40 -3
3 -8 -11 -11 -32z"/>
<path d="M4721 1664 c0 -11 3 -14 6 -6 3 7 2 16 -1 19 -3 4 -6 -2 -5 -13z"/>
<path d="M4711 1624 c0 -11 3 -14 6 -6 3 7 2 16 -1 19 -3 4 -6 -2 -5 -13z"/>
<path d="M4161 1554 c0 -11 3 -14 6 -6 3 7 2 16 -1 19 -3 4 -6 -2 -5 -13z"/>
<path d="M4662 1472 c-19 -53 -63 -157 -99 -231 -73 -147 -87 -162 -215 -227
-38 -19 -68 -37 -68 -40 0 -3 46 19 101 48 116 60 121 66 205 243 53 111 117
281 112 296 -2 5 -18 -35 -36 -89z"/>
<path d="M4040 1495 c0 -8 4 -15 10 -15 5 0 7 7 4 15 -4 8 -8 15 -10 15 -2 0
-4 -7 -4 -15z"/>
<path d="M4076 1403 c-12 -38 -75 -109 -126 -145 -63 -43 -79 -68 -80 -121 0
-28 -9 -50 -33 -82 -28 -36 -34 -52 -33 -92 1 -40 4 -48 21 -51 43 -6 87 40
162 168 40 68 73 130 73 137 0 7 9 28 20 48 14 25 20 54 20 95 0 58 -11 78
-24 43z"/>
<path d="M3884 1384 c3 -9 6 -18 6 -20 0 -2 4 -4 9 -4 5 0 7 9 4 20 -3 11 -10
20 -15 20 -6 0 -7 -7 -4 -16z"/>
<path d="M3935 1360 c-3 -5 -1 -10 4 -10 6 0 11 5 11 10 0 6 -2 10 -4 10 -3 0
-8 -4 -11 -10z"/>
<path d="M4350 1339 c0 -5 5 -7 10 -4 6 3 10 8 10 11 0 2 -4 4 -10 4 -5 0 -10
-5 -10 -11z"/>
<path d="M4420 1269 c0 -5 5 -7 10 -4 6 3 10 8 10 11 0 2 -4 4 -10 4 -5 0 -10
-5 -10 -11z"/>
<path d="M4255 1199 c-4 -6 -5 -13 -2 -16 7 -7 27 6 27 18 0 12 -17 12 -25 -2z"/>
<path d="M4185 1149 c-4 -6 -5 -13 -2 -16 7 -7 27 6 27 18 0 12 -17 12 -25 -2z"/>
<path d="M670 1066 c0 -6 87 -56 96 -56 4 0 -13 14 -39 30 -47 29 -57 34 -57
26z"/>
<path d="M4453 1039 c-6 -6 -62 -38 -125 -70 -130 -67 -136 -78 -9 -18 47 22
91 42 98 43 7 1 22 14 33 29 22 27 23 36 3 16z"/>
<path d="M690 1015 c0 -6 136 -75 147 -75 7 0 -137 80 -144 80 -2 0 -3 -2 -3
-5z"/>
<path d="M4230 957 c-11 -19 -11 -20 1 -11 8 6 21 13 28 16 13 4 13 5 0 10 -9
4 -21 -2 -29 -15z"/>
<path d="M4151 891 c-8 -6 -9 -11 -3 -15 6 -3 14 -1 17 5 9 14 2 20 -14 10z"/>
<path d="M4070 753 c-75 -106 -250 -280 -308 -305 -25 -11 -56 -20 -69 -20
-13 0 -26 -5 -29 -9 -3 -5 -10 -7 -15 -4 -5 4 -16 -1 -25 -9 -8 -9 -25 -16
-37 -16 -20 0 -20 1 5 28 27 29 89 114 71 97 -32 -30 -132 -154 -121 -150 7 2
66 20 131 40 l119 36 112 112 c101 100 155 164 210 250 38 57 8 24 -44 -50z"/>
<path d="M1015 770 c20 -37 77 -103 174 -203 86 -88 115 -111 160 -128 52 -20
209 -69 219 -69 3 0 -17 24 -44 53 -27 28 -62 68 -77 87 l-29 35 28 -40 c15
-22 41 -55 56 -74 16 -18 27 -35 25 -37 -2 -2 -51 12 -109 32 -96 33 -112 42
-181 105 -41 38 -106 106 -143 152 -78 95 -90 108 -79 87z"/>
<path d="M1470 516 c0 -2 8 -10 18 -17 15 -13 16 -12 3 4 -13 16 -21 21 -21
13z"/>
<path d="M3556 434 c-32 -36 -68 -69 -80 -74 -13 -6 -16 -9 -6 -9 14 -1 82 64
134 127 41 48 8 19 -48 -44z"/>
<path d="M1549 422 c32 -37 64 -65 80 -68 14 -3 42 -10 61 -15 19 -5 44 -8 55
-8 11 1 -12 8 -52 17 -66 15 -78 23 -135 77 l-62 60 53 -63z"/>
<path d="M3630 369 c-47 -15 -95 -28 -107 -29 -27 0 -85 -48 -76 -62 3 -6 1
-8 -5 -4 -6 3 -33 -8 -61 -25 -56 -35 -63 -51 -10 -24 18 10 57 26 87 36 54
19 237 111 257 130 11 11 16 12 -85 -22z m-85 -49 c-4 -6 -10 -8 -14 -6 -4 3
-23 -4 -41 -16 -28 -16 -32 -17 -20 -3 22 27 90 49 75 25z"/>
<path d="M3319 340 c-18 -12 -6 -23 19 -18 16 2 17 5 7 15 -7 6 -18 8 -26 3z"/>
<path d="M3428 343 c7 -3 16 -2 19 1 4 3 -2 6 -13 5 -11 0 -14 -3 -6 -6z"/>
<path d="M3145 314 c-9 -15 -12 -23 -6 -20 11 7 35 46 28 46 -3 0 -12 -12 -22
-26z"/>
<path d="M3378 333 c6 -2 18 -2 25 0 6 3 1 5 -13 5 -14 0 -19 -2 -12 -5z"/>
<path d="M1778 323 c7 -3 16 -2 19 1 4 3 -2 6 -13 5 -11 0 -14 -3 -6 -6z"/>
<path d="M1925 321 c3 -5 -5 -11 -17 -13 -19 -3 -17 -5 9 -9 28 -5 31 -3 22
13 -5 10 -12 18 -15 18 -3 0 -3 -4 1 -9z"/>
<path d="M1838 313 c7 -3 16 -2 19 1 4 3 -2 6 -13 5 -11 0 -14 -3 -6 -6z"/>
<path d="M3268 313 c6 -2 18 -2 25 0 6 3 1 5 -13 5 -14 0 -19 -2 -12 -5z"/>
<path d="M3176 302 c-3 -5 8 -6 25 -4 16 2 29 6 29 8 0 8 -49 4 -54 -4z"/>
<path d="M1835 279 c22 -4 51 -8 65 -7 16 0 11 3 -15 9 -22 4 -51 8 -65 7 -16
0 -11 -3 15 -9z"/>
<path d="M2043 283 c9 -2 23 -2 30 0 6 3 -1 5 -18 5 -16 0 -22 -2 -12 -5z"/>
<path d="M3058 283 c6 -2 18 -2 25 0 6 3 1 5 -13 5 -14 0 -19 -2 -12 -5z"/>
<path d="M2153 273 c9 -2 25 -2 35 0 9 3 1 5 -18 5 -19 0 -27 -2 -17 -5z"/>
<path d="M2943 273 c9 -2 25 -2 35 0 9 3 1 5 -18 5 -19 0 -27 -2 -17 -5z"/>
<path d="M2017 244 c24 -38 119 -105 168 -120 26 -7 75 -16 108 -19 34 -3 76
-8 93 -10 l30 -5 -25 54 c-30 63 -41 67 -17 6 9 -23 12 -39 8 -36 -11 6 -86
18 -202 30 -34 4 -64 21 -112 64 -40 36 -40 37 -17 43 21 5 19 6 -12 10 -36 5
-36 4 -22 -17z"/>
<path d="M2823 263 c9 -2 23 -2 30 0 6 3 -1 5 -18 5 -16 0 -22 -2 -12 -5z"/>
<path d="M2123 243 c9 -2 23 -2 30 0 6 3 -1 5 -18 5 -16 0 -22 -2 -12 -5z"/>
<path d="M2983 243 c9 -2 25 -2 35 0 9 3 1 5 -18 5 -19 0 -27 -2 -17 -5z"/>
<path d="M2223 233 c9 -2 23 -2 30 0 6 3 -1 5 -18 5 -16 0 -22 -2 -12 -5z"/>
<path d="M2396 200 c7 -40 32 -92 48 -102 6 -4 59 -8 119 -8 116 0 135 8 157
66 19 50 20 78 1 31 -31 -76 -28 -74 -161 -75 -66 -1 -120 0 -120 1 0 1 -12
29 -26 62 -18 44 -23 51 -18 25z"/>
<path d="M2492 223 c37 -2 100 -2 140 0 40 1 10 3 -67 3 -77 0 -110 -1 -73 -3z"/>
<path d="M2836 4175 c-4 -12 -1 -16 11 -13 18 3 21 20 5 26 -5 1 -12 -4 -16
-13z"/>
<path d="M2760 4140 c0 -5 5 -10 10 -10 6 0 10 5 10 10 0 6 -4 10 -10 10 -5 0
-10 -4 -10 -10z"/>
<path d="M2685 4050 c3 -5 8 -10 11 -10 2 0 4 5 4 10 0 6 -5 10 -11 10 -5 0
-7 -4 -4 -10z"/>
<path d="M2912 3478 c5 -15 28 -23 28 -10 0 5 -7 13 -16 16 -10 4 -14 1 -12
-6z"/>
<path d="M2945 3440 c3 -5 8 -10 11 -10 2 0 4 5 4 10 0 6 -5 10 -11 10 -5 0
-7 -4 -4 -10z"/>
<path d="M3328 3153 c12 -2 32 -2 45 0 12 2 2 4 -23 4 -25 0 -35 -2 -22 -4z"/>
</g>
</svg>
