<?xml version="1.0" encoding="utf-8"?>
<!-- Generator: Adobe Illustrator 19.1.0, SVG Export Plug-In . SVG Version: 6.00 Build 0)  -->
<svg version="1.1" id="Ebene_1" xmlns="http://www.w3.org/2000/svg" xmlns:xlink="http://www.w3.org/1999/xlink" x="0px" y="0px"
	 viewBox="0 0 28 28" style="enable-background:new 0 0 28 28;" xml:space="preserve">
<style type="text/css">
	.st0{fill:#FF7214;}
</style>
<g>
	<path class="st0" d="M23,19.8c-0.9,0.8-3,0.5-3-1.3v-7.3c-0.2,0-0.3-0.1-0.5-0.1c-0.2,0-0.3,0-0.5,0.1v7.3c0,1.8,1.4,2.7,2.8,2.7
		c0.7,0,1.4-0.2,1.8-0.7c0.4-0.3,0.9-1,0.9-2h-1C23.5,19,23.3,19.5,23,19.8z"/>
</g>
<path class="st0" d="M16.9,5.4c0.4-0.2,0.9-0.3,1.3-0.3L14,2.4L2.7,9.6l0.5,0.8L14,3.6L16.9,5.4z"/>
<path class="st0" d="M19.5,6c-2.8,0-5.2,1.7-6.1,4.2c0,0,0.1,0,0.1,0c0.6,0,1.1,0.1,1.5,0.4c0.4-0.2,0.9-0.4,1.5-0.4
	c0.6,0,1.1,0.1,1.5,0.4c0.4-0.2,0.9-0.4,1.5-0.4c0.6,0,1.1,0.1,1.5,0.4c0.4-0.2,0.9-0.4,1.5-0.4c0.6,0,1.1,0.1,1.5,0.4
	c0.4-0.2,0.9-0.4,1.5-0.4c0,0,0.1,0,0.1,0C24.7,7.7,22.3,6,19.5,6z"/>
<path class="st0" d="M21.8,22.2c-1.8,0-3.8-1.3-3.8-3.7v-6.3c0-1.4-3-1.4-3,0c0-1.4-3-1.4-3,0c0-2.4,1.3-4.6,3.2-5.9L14,5.6l-8,5.1
	V23h6h4h6v-0.8C21.9,22.2,21.9,22.2,21.8,22.2z M17,20h-6v-6h6V20z"/>
<g>
</g>
<g>
</g>
<g>
</g>
<g>
</g>
<g>
</g>
<g>
</g>
</svg>
