<?xml version="1.0" encoding="utf-8"?>
<!-- Generator: Adobe Illustrator 19.1.0, SVG Export Plug-In . SVG Version: 6.00 Build 0)  -->
<svg version="1.1" id="Ebene_1" xmlns="http://www.w3.org/2000/svg" xmlns:xlink="http://www.w3.org/1999/xlink" x="0px" y="0px"
	 viewBox="0 0 28 28" style="enable-background:new 0 0 28 28;" xml:space="preserve">
<style type="text/css">
	.st0{fill:#FF7214;}
</style>
<g>
	<path class="st0" d="M23.7,10.4l0.5-0.8l-0.4-0.3c-1.7-0.3-2.9-1-3.9-1.7c-0.1,0.1-0.2,0.1-0.3,0.2L23.7,10.4z"/>
	<path class="st0" d="M19.6,6.6L13,2.4L1.7,9.6l0.5,0.8L13,3.6l5.7,3.6C19.1,7,19.4,6.8,19.6,6.6z"/>
</g>
<path class="st0" d="M20,7.6c-1.2,0.9-3.2,1.7-5.5,1.9c0.2,4.7,3.8,9.2,5.5,10.8c0,0,0.1-0.1,0.1-0.1c1.4-1.4,5.2-5,5.4-10.7
	C22.8,9.4,21.2,8.5,20,7.6z M20,19c-0.6-0.5-4.3-4.3-4.3-8.6c1.9,0,3.5-0.8,4.3-1.4c0.9,0.7,2.1,1.4,4.3,1.4
	C24.3,15.5,20.7,18.3,20,19z"/>
<path class="st0" d="M20,17.8c0.5-0.6,3.3-2.7,3.3-6.6c-1.7,0-2.6-0.5-3.3-1.1c-0.6,0.5-1.8,1.1-3.3,1.1
	C16.7,14.5,19.6,17.4,20,17.8z"/>
<path class="st0" d="M20.4,21.3L20,21.7l-0.4-0.3c0,0,0,0-0.1-0.1c0,0,0,0,0,0c0,0-0.1-0.1-0.2-0.2c0,0-0.1-0.1-0.1-0.1
	c-0.1-0.1-0.2-0.2-0.2-0.3c0-0.1-0.1-0.1-0.2-0.2c-0.1-0.1-0.2-0.2-0.3-0.3c-0.1-0.1-0.1-0.1-0.2-0.2c-0.1-0.1-0.2-0.3-0.3-0.4
	c-0.1-0.1-0.1-0.2-0.2-0.2c-0.1-0.2-0.3-0.3-0.4-0.5c-0.1-0.1-0.1-0.2-0.2-0.3c-0.1-0.2-0.3-0.4-0.4-0.6c-0.1-0.1-0.1-0.2-0.2-0.2
	c-0.2-0.3-0.4-0.6-0.6-0.9V20h-6v-6h4.6l0,0c-0.2-0.4-0.3-0.7-0.4-1.1c0,0,0,0,0-0.1c-0.1-0.4-0.2-0.7-0.3-1.1c0-0.1,0-0.1,0-0.2
	c-0.1-0.3-0.1-0.7-0.2-1c0-0.1,0-0.2,0-0.3c0-0.4-0.1-0.9-0.1-1.3V8.5H14c0.3,0,0.6,0,0.8,0c0.1,0,0.3,0,0.4-0.1
	c0.1,0,0.2,0,0.4-0.1c0.2,0,0.4-0.1,0.5-0.1c0.1,0,0.1,0,0.2,0c0.2-0.1,0.4-0.1,0.6-0.2L13,5.6l-8,5.1V23h6h4h6v-2.3
	c-0.1,0.1-0.1,0.1-0.2,0.2C20.6,21.1,20.5,21.2,20.4,21.3z"/>
<g>
</g>
<g>
</g>
<g>
</g>
<g>
</g>
<g>
</g>
<g>
</g>
</svg>
