<?xml version="1.0" encoding="utf-8"?>
<!-- Generator: Adobe Illustrator 19.1.0, SVG Export Plug-In . SVG Version: 6.00 Build 0)  -->
<svg version="1.1" id="Ebene_1" xmlns="http://www.w3.org/2000/svg" xmlns:xlink="http://www.w3.org/1999/xlink" x="0px" y="0px"
	 viewBox="0 0 28 28" style="enable-background:new 0 0 28 28;" xml:space="preserve">
<style type="text/css">
	.st0{fill:#FF7214;}
</style>
<path class="st0" d="M17.3,22.6c-4.4,0-8-3.8-8-8.5c0-4.7,3.6-8.5,8-8.5c0.9,0,1.7,0.2,2.5,0.4c-0.7-0.3-1.5-0.6-2.3-0.7
	c-1-0.2-4.7-0.2-7,2.1c-1.8,1.8-2.5,5-4.4,7.5c-1.6,2.2-4,4.8-4,6.7c5.2-1.2,8.9,0.8,13.5,1.5c1.5,0.3,3.1-0.2,4.6-1
	C19.3,22.4,18.3,22.6,17.3,22.6z"/>
<g>
	<path class="st0" d="M13.7,15.4c0-1.6,0.7-2.6,1.8-3.5c0.5-0.4,2-1.1,3.5,0.1c0.5,0.4,1.5,0.9,1.5,0.3c1.1,1.3,1.5-0.4,0.1-1.6
		c-0.8-0.7-1.9-1.1-3.1-1.1c-2.8,0-5.1,2.5-5.1,5.5s2.3,5.5,5.1,5.5c0.1,0,0.1,0,0.2,0C15.4,20.1,13.7,17.9,13.7,15.4z"/>
</g>
<g>
	<path class="st0" d="M12.7,10.9C14,9,15.8,8.3,17.9,8.4c1.5,0.1,3.9,1,4.8,3.9c0.3,0.9,1.2,2.5,1.8,1.7c1,3.7,2,1.1,1.1-1.7
		C25,10.6,24.1,9.1,22.6,8c-3.5-2.7-8.5-1.9-11,1.9s-0.8,9,3.2,11.2C11.3,18.1,10.5,14.1,12.7,10.9z"/>
</g>
</svg>
