<?xml version="1.0" encoding="utf-8"?>
<!-- Generator: Adobe Illustrator 19.1.0, SVG Export Plug-In . SVG Version: 6.00 Build 0)  -->
<svg version="1.1" id="Ebene_1" xmlns="http://www.w3.org/2000/svg" xmlns:xlink="http://www.w3.org/1999/xlink" x="0px" y="0px"
	 viewBox="0 0 28 28" style="enable-background:new 0 0 28 28;" xml:space="preserve">
<style type="text/css">
	.st0{fill:#FF7214;}
</style>
<g>
	<polygon class="st0" points="24.7,10.4 14,3.6 3.3,10.4 2.7,9.6 14,2.4 25.3,9.6 	"/>
</g>
<g>
	<path class="st0" d="M20.5,11c-3.6,0-6.5,2.9-6.5,6.5c0,3.6,2.9,6.5,6.5,6.5s6.5-2.9,6.5-6.5C27,13.9,24.1,11,20.5,11z M22,11.7
		C22,11.7,22,11.7,22,11.7c1.6,0.4,2.9,1.4,3.7,2.8L23.1,16c-0.4-0.7-1-1.2-1.8-1.4c0,0,0,0,0,0L22,11.7z M14.7,16
		c0.4-1.6,1.4-2.9,2.8-3.7l1.5,2.6c-0.7,0.4-1.2,1-1.4,1.8c0,0,0,0,0,0L14.7,16C14.7,16,14.7,16,14.7,16z M19,23.3
		C19,23.3,19,23.3,19,23.3c-1.6-0.4-2.9-1.4-3.7-2.8l2.6-1.5c0.4,0.7,1,1.2,1.8,1.4c0,0,0,0,0,0L19,23.3z M18,17.5
		c0-1.4,1.1-2.5,2.5-2.5s2.5,1.1,2.5,2.5c0,1.4-1.1,2.5-2.5,2.5S18,18.9,18,17.5z M23.6,22.7L22,20.1c0.7-0.4,1.2-1,1.4-1.8
		c0,0,0,0,0,0l2.9,0.7c0,0,0,0,0,0C25.9,20.6,24.9,21.9,23.6,22.7z"/>
</g>
<path class="st0" d="M13.4,20H11v-6h2.9c1.3-2.4,3.8-4,6.6-4c0.2,0,0.3,0,0.5,0l-7-4.4l-8,5.1V23h6h3.4C14.5,22.2,13.8,21.2,13.4,20
	z"/>
<g>
</g>
<g>
</g>
<g>
</g>
<g>
</g>
<g>
</g>
<g>
</g>
</svg>
