<?xml version="1.0" encoding="utf-8"?>
<!-- Generator: Adobe Illustrator 19.1.0, SVG Export Plug-In . SVG Version: 6.00 Build 0)  -->
<svg version="1.1" id="Ebene_1" xmlns="http://www.w3.org/2000/svg" xmlns:xlink="http://www.w3.org/1999/xlink" x="0px" y="0px"
	 viewBox="0 0 28 28" style="enable-background:new 0 0 28 28;" xml:space="preserve">
<style type="text/css">
	.st0{fill:#FF7214;}
</style>
<path class="st0" d="M20.8,18.1c0.2,0.1,0.4,0.2,0.6,0.2c0.2,0,0.4,0,0.6-0.1v-1.2c-0.6,0-1.2-0.2-1.8-0.4
	C20.2,17.2,20.4,17.8,20.8,18.1z"/>
<path class="st0" d="M16,3.7l-2-1.3L2.7,9.6l0.5,0.8L14,3.6l1.3,0.8C15.5,4.2,15.7,3.9,16,3.7z"/>
<path class="st0" d="M21,9.1c-1.7,0-3.3-0.4-4.4-1c0.4,1.3,2.4,2.3,4.7,2.3c2.7,0,4.8-1.2,4.8-2.8c0,0,0,0,0-0.1
	C25.1,8.4,23.2,9.1,21,9.1z"/>
<path class="st0" d="M21.3,11.3c-1.3,0-2.4-0.3-3.4-0.7c0.5,1.4,2,2.4,3.7,2.4c2,0,3.6-1.2,3.8-2.8C24.5,10.9,23,11.3,21.3,11.3z"/>
<path class="st0" d="M21.7,14c-1,0-2-0.3-2.8-0.8c0.2,1.5,1.5,2.7,3.1,2.7c1.8,0,3.2-1.4,3.2-3.1c0,0,0-0.1,0-0.1
	C24.3,13.5,23,14,21.7,14z"/>
<path class="st0" d="M22,16.9c-0.6,0-1.2-0.2-1.8-0.4c0,0.7,0.2,1.3,0.6,1.6c0.2,0.1,0.4,0.2,0.6,0.2c0.8,0,1.7-0.6,2.3-1.6
	c0,0,0-0.1,0-0.1C23.2,16.8,22.6,16.9,22,16.9z"/>
<path class="st0" d="M21.4,19.2c-0.3,0-0.5-0.1-0.8-0.2c0,0.1,0.1,0.2,0.1,0.3c0.5,1.1,1.2,1.8,1.8,1.8c0.1,0,0.2,0,0.2,0
	c0.6-0.2,0.6-1.3,0.2-2.5C22.5,19.1,22,19.2,21.4,19.2z"/>
<path class="st0" d="M19.9,19.8c-0.3-0.7-0.4-1.3-0.4-2c-0.1-0.3-0.2-0.7-0.2-1.1c0-0.3,0-0.6,0.1-0.8c-0.9-0.8-1.5-1.9-1.5-3.1
	c0-0.2,0-0.3,0-0.4c-0.6-0.7-1-1.5-1.1-2.4c-0.8-0.6-1.3-1.5-1.3-2.4c0-0.1,0-0.2,0-0.4c-0.3-0.3-0.4-0.6-0.5-1l-1-0.7l-8,5.1V23h6
	h4h6v-0.9C21.2,21.9,20.4,21,19.9,19.8z M17,20h-6v-6h6V20z"/>
<g>
	<path class="st0" d="M25.5,4.6c0,0.2,0,0.4-0.1,0.6c-0.2,0.8-0.7,1.3-1.6,1.6c-1.1,0.4-2.2,0.5-3.2,0.5c-0.4,0-0.7,0-1-0.1
		C19,7.2,18,7,17.7,6.3c-0.1-0.2-0.2-0.6-0.1-1.1c0.3-1.1,1.8-1,3.1-0.9c0.4,0,0.7,0,1,0c0.3,0,0.5-0.1,0.6-0.2
		c0.1-0.1,0.1-0.3,0.1-0.4c-0.1-0.2-0.2-0.4-1.4-0.5c-2.7-0.1-4.9,1.1-4.9,2.4c0,1.3,2.3,2.4,5,2.4s5-1.1,5-2.4
		C26,5.3,25.8,4.9,25.5,4.6z"/>
	<path class="st0" d="M23.3,3.6c0.1,0.4,0,0.7-0.2,1c-0.3,0.4-0.8,0.7-1.4,0.7c-0.3,0-0.7,0-1.1,0c-0.2,0-0.6,0-0.9,0
		c-0.5,0-1.1,0.1-1.2,0.3c-0.1,0.2,0,0.2,0,0.3c0.2,0.3,0.8,0.4,1.1,0.5c1,0.2,2.5,0,3.8-0.4c0.7-0.2,0.9-0.5,1-0.9
		c0.1-0.5-0.3-0.9-0.3-0.9c-0.1-0.1-0.4-0.3-0.6-0.4C23.4,3.6,23.3,3.6,23.3,3.6C23.2,3.6,23.3,3.6,23.3,3.6z"/>
</g>
<g>
</g>
<g>
</g>
<g>
</g>
<g>
</g>
<g>
</g>
<g>
</g>
</svg>
