<?xml version="1.0" encoding="utf-8"?>
<!-- Generator: Adobe Illustrator 19.1.0, SVG Export Plug-In . SVG Version: 6.00 Build 0)  -->
<svg version="1.1" id="Ebene_1" xmlns="http://www.w3.org/2000/svg" xmlns:xlink="http://www.w3.org/1999/xlink" x="0px" y="0px"
	 viewBox="0 0 28 28" style="enable-background:new 0 0 28 28;" xml:space="preserve">
<style type="text/css">
	.st0{fill:none;stroke:#FF7214;stroke-miterlimit:10;}
	.st1{fill:#FF7214;}
</style>
<path class="st0" d="M3,22.5c1.8,0,1.8,2,3.7,2c1.8,0,1.8-2,3.7-2c1.8,0,1.8,2,3.7,2c1.8,0,1.8-2,3.7-2c1.8,0,1.8,2,3.7,2
	c1.8,0,1.8-2,3.7-2"/>
<path class="st0" d="M3,19.5c1.8,0,1.8,2,3.7,2c1.8,0,1.8-2,3.7-2c1.8,0,1.8,2,3.7,2c1.8,0,1.8-2,3.7-2c1.8,0,1.8,2,3.7,2
	c1.8,0,1.8-2,3.7-2"/>
<polyline class="st0" points="25,10 14,3 3,10 "/>
<path class="st1" d="M14,5.6l-8,5.1v8.2C6.2,18.9,6.4,19,6.7,19c0.7,0,1-0.4,1.5-0.8c0.5-0.5,1.1-1.2,2.2-1.2c0.3,0,0.5,0,0.7,0.1
	V14h1h4h1v3.1c0.2-0.1,0.4-0.1,0.7-0.1c1.1,0,1.7,0.6,2.2,1.2c0.4,0.5,0.8,0.8,1.5,0.8c0.3,0,0.5-0.1,0.7-0.2v-8.2L14,5.6z"/>
<g>
</g>
<g>
</g>
<g>
</g>
<g>
</g>
<g>
</g>
<g>
</g>
</svg>
